<svg width="24" height="24" viewBox="0 0 24 24" fill="none" xmlns="http://www.w3.org/2000/svg">
<path d="M23.3755 13.3922C22.6311 12.6722 22.2233 11.7844 22.1277 10.7767C22.0799 10.3445 22.0799 9.88889 22.0077 9.4567C21.8633 8.59232 21.4321 7.94451 20.6399 7.5367C19.7043 7.0567 18.7443 6.62451 17.7844 6.14451C17.6887 6.0967 17.6166 6.00013 17.5444 5.90451C17.28 5.47232 17.04 5.0167 16.7288 4.63232C15.4331 3.04793 13.3443 2.92793 11.8565 4.32013C11.4009 4.75232 11.0409 5.28013 10.7287 5.85574C10.6809 5.95137 10.6331 6.02355 10.4887 6.04793C9.4087 6.16793 8.59309 6.93574 8.4009 7.99231C8.37652 8.11231 8.32871 8.1845 8.20871 8.23231C7.89652 8.35231 7.5609 8.3045 7.27309 8.1845C6.62529 7.89669 6.2409 7.36888 6.04871 6.72012C5.85652 6.07231 5.71309 5.4245 5.59309 4.75231C5.49747 4.32012 5.42528 3.8645 5.35309 3.43231C5.66529 3.24012 5.78529 3.04792 5.73748 2.80792C5.68967 2.56792 5.52185 2.40012 5.30529 2.37573C4.94529 2.32792 4.8009 2.56792 4.70529 2.85573C4.58529 2.80792 4.5131 2.78354 4.41748 2.73573C3.96186 2.56792 3.48186 2.52011 3.07309 2.83136C2.78529 3.04698 2.47309 3.11917 2.13748 3.07136H1.89748C1.51216 3.00011 1.19999 3.12011 0.959989 3.43229C0.912177 3.48011 0.864364 3.55229 0.792177 3.57667C0.552177 3.67229 0.504369 3.88886 0.479985 4.10448C0.45561 4.27229 0.479985 4.39228 0.647797 4.48886C0.672172 4.51323 0.719985 4.56105 0.719985 4.58449C0.672172 4.72886 0.767797 4.72886 0.864359 4.7523C1.15217 4.82449 1.43998 4.84792 1.70436 4.70449C1.96874 4.56011 2.15998 4.6323 2.37655 4.77667C2.68874 4.96886 3.00094 5.18448 3.33655 5.32886C3.57655 5.42449 3.64874 5.56886 3.64874 5.80886C3.67312 6.76886 3.74437 7.70448 4.05655 8.61662C4.65655 10.4166 6.14436 11.5444 8.01655 11.6166H8.85655V11.7366C8.88093 12.841 8.90436 13.9444 8.95218 15.0489C8.97655 15.3611 8.97655 15.6245 8.78436 15.9132C8.56874 16.2489 8.56874 16.5854 8.75999 16.9454C8.83218 17.0654 8.90436 17.2098 8.95218 17.3298C8.97655 17.3776 8.99999 17.4498 8.99999 17.522C8.99999 18.2664 8.97561 18.9864 8.97561 19.7298C8.97561 20.162 8.8078 20.522 8.47123 20.8342C8.23123 21.0742 8.01561 21.3386 7.77562 21.602H10.2711C10.1511 21.4576 10.0555 21.3376 9.95894 21.242C9.62333 20.882 9.47894 20.4742 9.52675 19.9942C9.57456 19.442 9.57456 18.8898 9.62238 18.362C9.67019 17.9298 9.598 17.4742 9.86238 17.0898C10.1268 16.7054 10.1268 16.2976 9.91019 15.8898C9.86238 15.7942 9.81456 15.6976 9.838 15.602C9.93363 15.1698 10.078 14.762 10.198 14.3064C10.2936 14.6664 10.3902 15.002 10.4858 15.3142C10.558 15.5542 10.5814 15.7698 10.4858 16.0098C10.3414 16.3942 10.3902 16.7776 10.6536 17.1142C10.7258 17.2098 10.7736 17.282 10.8214 17.3786C10.8692 17.4742 10.9171 17.5942 10.9658 17.7142C11.1336 18.4342 11.278 19.1542 11.4458 19.8986C11.4702 19.9942 11.4936 20.1142 11.4702 20.2108C11.398 20.403 11.3024 20.6186 11.158 20.7864C10.9424 21.0742 10.7024 21.3142 10.438 21.602H13.0058C12.8614 21.4576 12.7658 21.3142 12.6458 21.2176C12.3336 20.9054 12.1179 20.522 12.0458 20.0654C11.9258 19.3698 11.8058 18.6732 11.6858 17.9532C11.6379 17.6411 11.5658 17.3054 11.7336 16.9932C11.9492 16.5611 11.9014 16.1289 11.6136 15.7454C11.5658 15.6732 11.5179 15.5776 11.5179 15.5054C11.4701 14.6176 11.4223 13.7054 11.3736 12.8177C11.3492 12.5533 11.3258 12.2899 11.3014 12.0021C11.4936 12.0499 11.6614 12.0977 11.8292 12.1464C13.437 12.5542 15.0692 12.6021 16.7247 12.3142C16.8691 12.2899 16.9169 12.3386 16.9891 12.4342C17.6847 13.4899 18.1413 14.6664 18.5735 15.842C18.6213 15.962 18.6213 16.0576 18.5257 16.1542C18.31 16.442 18.2379 16.7786 18.3335 17.1386C18.3813 17.3786 18.4057 17.6186 18.3578 17.8586C18.2135 18.4108 18.0222 18.963 17.83 19.5142C17.6379 20.0664 17.35 20.5464 16.8457 20.882C16.5813 21.0742 16.39 21.3376 16.15 21.6264H18.5978C18.5734 21.5786 18.5734 21.5542 18.5734 21.5542C18.5256 21.482 18.4778 21.4098 18.4291 21.3386C18.0691 20.883 18.0691 20.4264 18.2847 19.8986C18.4769 19.4664 18.6447 19.0342 18.8125 18.5786C18.9803 18.0986 19.1481 17.643 19.5569 17.283C19.8213 17.0673 19.8213 16.7308 19.7247 16.4186C19.6525 16.1542 19.5569 15.8664 19.5325 15.603C19.4603 15.0508 19.3881 14.4986 19.3169 13.9473C19.3412 13.9473 19.3647 13.9473 19.3647 13.9717C19.8691 14.5961 20.3491 15.1961 20.8525 15.8195C20.9003 15.8673 20.9247 15.9873 20.9003 16.0595C20.8047 16.5151 20.9003 16.9239 21.1647 17.3073C21.2369 17.403 21.3091 17.523 21.3325 17.643C21.4047 18.3151 21.4525 19.0108 21.5481 19.683C21.6203 20.1873 21.4281 20.5708 21.0681 20.9073C20.8281 21.123 20.6359 21.3873 20.3959 21.6517H22.9159C22.7716 21.5073 22.6759 21.3639 22.5559 21.2439C22.2915 20.9561 22.1481 20.6195 22.1481 20.2361C22.1238 19.6117 22.0759 18.9639 22.0525 18.3405C22.0281 17.8605 21.9803 17.4049 22.2447 16.9483C22.4369 16.6127 22.3647 16.2527 22.1247 15.9639C22.0291 15.8439 21.9091 15.6995 21.8603 15.5561C21.6925 15.1239 21.5003 14.6917 21.3803 14.2361C21.1159 13.2761 21.0925 12.2683 21.0203 11.2839C20.9725 10.5639 20.9003 9.84386 20.7803 9.14825C20.7081 8.74044 20.5403 8.38044 20.3959 7.97263C20.5159 8.04482 20.6359 8.11701 20.7315 8.18826C21.3315 8.64387 21.5237 9.26826 21.5715 9.96387C21.6193 10.5639 21.6437 11.1639 21.7393 11.7639C21.835 12.5317 22.0993 13.2761 22.6037 13.8995C22.9881 14.3551 22.8437 14.2839 23.3481 14.0917C23.3725 14.0673 23.4203 14.0673 23.4437 14.0439C23.4681 14.0195 23.5159 13.9961 23.5159 13.9717C23.5197 13.7523 23.5677 13.5601 23.3755 13.3922Z" fill="#BBE3D3"/>
</svg>
