<svg width="32" height="32" viewBox="0 0 32 32" fill="none" xmlns="http://www.w3.org/2000/svg">
<path d="M23.3911 11.0989L20.9011 8.60889L19.4998 9.30889V10.2926L19.8536 10.6464C20.0486 10.8414 20.0486 11.1589 19.8536 11.3539C19.6586 11.5489 19.3411 11.5489 19.1461 11.3539L18.9636 11.1714C18.5561 11.4776 17.7586 12.0276 16.2561 12.9289C15.5249 13.3676 14.9061 13.6126 14.3486 13.7564L14.7249 15.0101C15.9274 15.1201 16.8799 16.0726 16.9899 17.2751L18.2436 17.6514C18.3874 17.0939 18.6324 16.4751 19.0711 15.7439C19.9724 14.2414 20.5224 13.4451 20.8286 13.0364L20.6461 12.8539C20.4511 12.6589 20.4511 12.3414 20.6461 12.1464C20.8411 11.9514 21.1586 11.9514 21.3536 12.1464L21.7074 12.5002H22.6911L23.3911 11.0989Z" fill="black"/>
<path d="M15.9968 17.6159C15.9993 17.5734 16.0005 17.5359 16.0005 17.4996C15.9993 16.6722 15.328 16.0009 14.5005 15.9996C14.4643 15.9996 14.4268 16.0009 14.3843 16.0034C14.1518 16.0184 13.9405 15.8709 13.873 15.6484L13.358 13.9321C13.1305 13.9571 12.9092 13.9721 12.6892 13.9884C12.5805 13.9959 12.473 14.0034 12.3643 14.0121L13.1793 16.4571C13.2218 16.5821 13.2118 16.7184 13.1543 16.8359C12.8705 17.4121 12.9855 18.1059 13.4405 18.5596C13.8943 19.0134 14.588 19.1284 15.1643 18.8459C15.2818 18.7884 15.418 18.7784 15.543 18.8196L17.988 19.6346C17.9968 19.5259 18.0043 19.4184 18.0118 19.3096C18.0268 19.0896 18.043 18.8684 18.068 18.6409L16.3517 18.1259V18.1271C16.1292 18.0596 15.9818 17.8484 15.9968 17.6159Z" fill="black"/>
<path d="M14.5 20C13.675 19.9987 12.9025 19.5913 12.4363 18.91C11.9713 18.2288 11.8713 17.3613 12.17 16.5913L11.3575 14.1562C10.6537 14.315 9.85624 14.6462 8.79 15.4075C5.81125 17.535 2.75384 23.9589 2.08984 25.4075L6.1324 29.9C7.69615 29.225 14.4748 26.1736 16.5926 23.2101C17.3538 22.1438 17.6838 21.3463 17.8438 20.6426L15.4088 19.8301C15.1188 19.9438 14.8112 20.0012 14.5 20ZM13.8538 22.8538L10.3536 26.3539C10.2598 26.4477 10.1323 26.5002 9.99984 26.5002C9.86733 26.5002 9.73984 26.4477 9.64608 26.3539L5.64608 22.3539C5.55233 22.2602 5.49983 22.1327 5.49983 22.0002C5.49983 21.8676 5.55233 21.7402 5.64608 21.6464L9.14624 18.1462C9.23999 18.0525 9.36749 18 9.5 18C9.63251 18 9.76 18.0525 9.85376 18.1462L13.8538 22.1462C13.9475 22.24 14 22.3675 14 22.5C14 22.6325 13.9475 22.76 13.8538 22.8538Z" fill="black"/>
<path d="M6.70801 21.9995L9.50052 19.207L12.793 22.4995L10.0005 25.292L6.70801 21.9995Z" fill="black"/>
<path d="M24.1035 10.396C24.3223 10.6148 24.6773 10.6148 24.896 10.396C25.1148 10.1773 25.1148 9.82227 24.896 9.60351L22.396 7.10351C22.1773 6.88477 21.8223 6.88477 21.6035 7.10351C21.3848 7.32226 21.3848 7.67727 21.6035 7.89603L24.1035 10.396Z" fill="black"/>
<path d="M25.708 5.49954L26.5005 4.70703L27.293 5.49954L26.5005 6.29206L25.708 5.49954Z" fill="black"/>
<path d="M29.4405 5.35328C29.6342 5.15828 29.6342 4.84077 29.4405 4.64579L27.3542 2.5608C27.1592 2.3658 26.8417 2.3658 26.6468 2.5608L26.208 2.99955L29.0005 5.79207L29.4405 5.35328Z" fill="black"/>
<path d="M23.0316 4.82472C22.9366 5.08347 23.0679 5.36972 23.3254 5.46597C23.5829 5.56223 23.8703 5.43222 23.9679 5.17597C24.0029 5.08347 24.8054 2.88346 23.3841 1.17981C23.2991 1.07606 23.1779 1.01106 23.0441 0.997313C22.9116 0.984813 22.7791 1.02606 22.6766 1.11106C22.5741 1.19731 22.5091 1.31981 22.4979 1.45356C22.4866 1.58606 22.5291 1.71856 22.6166 1.8198C23.6554 3.06604 23.0428 4.79349 23.0316 4.82472Z" fill="black"/>
<path d="M16.8423 1.97459C19.5086 2.86332 19.9898 5.0046 20.0111 5.10083L20.0098 5.09958C20.0573 5.33208 20.2623 5.49958 20.4998 5.49958C20.5323 5.49958 20.5648 5.49583 20.5973 5.48958C20.7273 5.46333 20.8423 5.38708 20.9161 5.27708C20.9898 5.16708 21.0161 5.03208 20.9898 4.90207C20.9673 4.78832 20.3961 2.10457 17.1572 1.02591H17.1584C16.8959 0.93841 16.6122 1.07966 16.5259 1.34216C16.4384 1.60341 16.5798 1.88707 16.8423 1.97459Z" fill="black"/>
<path d="M15.8428 6.02471C15.5803 6.11221 15.4391 6.39597 15.5253 6.65722C15.6128 6.91972 15.8966 7.06096 16.1578 6.97472C17.4728 6.53597 18.8278 6.96972 18.8428 6.97472C19.1053 7.06097 19.3878 6.91972 19.4753 6.65722C19.5628 6.39597 19.4203 6.11223 19.1578 6.02471C19.0903 6.00221 17.4814 5.47847 15.8428 6.02471Z" fill="black"/>
<path d="M11.582 3.99344C14.3683 3.52844 16.2582 4.43843 16.2771 4.44844V4.44719C16.5246 4.56845 16.8221 4.46719 16.9446 4.22094C17.0671 3.97595 16.9683 3.6772 16.7233 3.55221C16.6358 3.50846 14.5421 2.48597 11.4171 3.00597C11.1446 3.05222 10.9608 3.30972 11.0058 3.58222C11.052 3.85472 11.3095 4.03843 11.582 3.99344Z" fill="black"/>
<path d="M26.8245 8.03254C26.6995 8.07754 26.5982 8.17254 26.5432 8.29254C26.4882 8.41379 26.4832 8.55254 26.5295 8.67629C26.577 8.80128 26.672 8.90253 26.7932 8.95629C26.9145 9.01129 27.052 9.01503 27.177 8.96754C27.1945 8.96128 28.9195 8.33128 30.1807 9.38379C30.392 9.56129 30.7082 9.53254 30.8844 9.32004C31.0619 9.10879 31.0332 8.79255 30.8207 8.6163C29.117 7.19505 26.9182 7.99753 26.8245 8.03254Z" fill="black"/>
<path d="M30.9737 14.8426C29.895 11.6051 27.2112 11.0326 27.0976 11.0099C26.9676 10.9837 26.8326 11.0099 26.7226 11.0837C26.6125 11.1574 26.5363 11.2724 26.5101 11.4024C26.4551 11.6724 26.6313 11.9362 26.9026 11.9899C26.9251 11.9949 29.1288 12.4637 30.0263 15.1574C30.0663 15.2849 30.1563 15.3899 30.2763 15.4511C30.3951 15.5111 30.5326 15.5212 30.6601 15.4787C30.7863 15.4362 30.8913 15.3462 30.9501 15.2262C31.0088 15.1062 31.0175 14.9676 30.9737 14.8426Z" fill="black"/>
<path d="M25.3431 12.5258C25.0806 12.6121 24.9381 12.8946 25.0243 13.1571C25.0293 13.1708 25.4631 14.5258 25.0243 15.8421H25.0256C24.9818 15.9683 24.9906 16.1058 25.0493 16.2258C25.1081 16.3458 25.2131 16.4371 25.3393 16.4783C25.4668 16.5208 25.6043 16.5108 25.7231 16.4508C25.8431 16.3908 25.9331 16.2846 25.9731 16.1583C26.5193 14.5196 25.9956 12.9097 25.9731 12.8422C25.8868 12.5797 25.6044 12.4383 25.3431 12.5258Z" fill="black"/>
<path d="M27.778 15.0522C27.5318 15.176 27.4305 15.4747 27.553 15.7223C27.5555 15.7273 27.7868 16.2023 27.958 17.0173H27.9568C28.183 18.1385 28.2005 19.291 28.0068 20.4173C27.9843 20.5485 28.0143 20.6835 28.0918 20.7923C28.1693 20.901 28.2868 20.9748 28.418 20.996C28.5492 21.0185 28.6842 20.986 28.7918 20.9085C28.8993 20.831 28.973 20.7135 28.993 20.5823C29.5143 17.4573 28.4905 15.3634 28.4468 15.276H28.448C28.3243 15.0298 28.0255 14.9298 27.778 15.0522Z" fill="black"/>
</svg>
