<svg width="33" height="33" viewBox="0 0 33 33" fill="none" xmlns="http://www.w3.org/2000/svg">
<path fill-rule="evenodd" clip-rule="evenodd" d="M8.59179 12.6917C10.0605 9.71545 13.1268 7.66675 16.6667 7.66675C20.2078 7.66675 23.274 9.71548 24.7428 12.6917C28.0603 12.9842 30.6667 15.773 30.6667 19.1666C30.6667 22.7541 27.7554 25.6664 24.1668 25.6664H9.16811C5.57931 25.6664 2.66699 22.7539 2.66699 19.1666C2.66699 15.773 5.27416 12.9842 8.59179 12.6917ZM16.6756 22.5279C16.6969 22.5291 16.7156 22.5291 16.7344 22.5291H16.7456C17.0669 22.5291 17.3994 22.4154 17.6831 22.1366C17.6831 22.1366 21.4294 18.4528 21.4844 18.374C21.8032 17.9228 21.6944 17.299 21.2432 16.9803C20.8044 16.6703 20.2019 16.7653 19.8757 17.1853L17.7357 19.2865V11.5953C17.7357 11.0428 17.2869 10.5953 16.7344 10.5953C16.1832 10.5953 15.7357 11.0428 15.7357 11.5953V19.2741L13.5932 17.1841C13.2669 16.7641 12.6644 16.6703 12.2257 16.9791C11.7744 17.2978 11.6669 17.9216 11.9844 18.3728C12.0407 18.4528 15.8081 22.1402 15.8081 22.1402C16.0731 22.3977 16.3769 22.5141 16.6756 22.5279Z" fill="black"/>
</svg>
