<svg width="400" height="316" viewBox="0 0 400 316" fill="none" xmlns="http://www.w3.org/2000/svg">
<g clip-path="url(#clip0_4_3885)">
<path d="M110.744 308.659L117.887 307.848L118.16 279.911L107.618 281.108L110.744 308.659Z" fill="#FFB8B8"/>
<path d="M132.415 312.918L109.966 315.465L108.982 306.792L122.758 305.229C125.058 304.968 127.368 305.631 129.179 307.073C130.99 308.515 132.154 310.618 132.415 312.918Z" fill="#2F2E41"/>
<path d="M37.2829 308.212H44.4719L47.8917 280.483L37.2818 280.485L37.2829 308.212Z" fill="#FFB8B8"/>
<path d="M58.3363 314.887L35.7429 314.888L35.7425 306.159L49.6066 306.158C51.9218 306.158 54.1422 307.078 55.7793 308.715C57.4164 310.352 58.3362 312.572 58.3363 314.887Z" fill="#2F2E41"/>
<path d="M88.8614 184.213L92.9661 197.564L115.248 245.783L121.112 291.52L107.625 292.106L99.4162 249.887L71.2702 219.396L46.6424 299.143L35.5013 297.97C35.5013 297.97 44.8833 194.768 57.7835 184.213C57.7835 184.213 78.893 174.245 88.8614 184.213Z" fill="#2F2E41"/>
<path d="M70.6538 126.604C78.6078 126.604 85.0558 120.156 85.0558 112.202C85.0558 104.248 78.6078 97.8003 70.6538 97.8003C62.6998 97.8003 56.2518 104.248 56.2518 112.202C56.2518 120.156 62.6998 126.604 70.6538 126.604Z" fill="#FFB8B8"/>
<path d="M90.3274 186.852C90.3274 186.852 92.0865 127.042 67.4587 131.146C42.831 135.251 53.0925 193.009 53.0925 193.009C53.0925 193.009 58.3699 203.564 71.2702 191.836C84.1704 180.109 90.3274 186.852 90.3274 186.852Z" fill="#CCCCCC"/>
<path opacity="0.2" d="M56.3179 156.361L62.113 178.575L70.9421 187.404L58.6634 183.334L56.3179 156.361Z" fill="black"/>
<path d="M90.5094 212.147C89.699 211.853 88.9628 211.385 88.3529 210.776C87.7429 210.167 87.2739 209.432 86.9788 208.622C86.6838 207.812 86.57 206.947 86.6454 206.088C86.7207 205.23 86.9835 204.398 87.4151 203.652L73.718 187.794L84.5157 186.389L95.8673 201.663C97.0728 202.471 97.94 203.693 98.3045 205.098C98.6691 206.503 98.5056 207.992 97.8452 209.285C97.1848 210.577 96.0732 211.582 94.7212 212.11C93.3691 212.637 91.8705 212.651 90.5094 212.147Z" fill="#FFB8B8"/>
<path d="M73.8326 143.329L75.3748 173.659L93.5524 197.114L85.9295 202.977L61.3018 178.35C61.3018 178.35 52.5061 148.444 58.9563 139.649C61.3751 136.35 64.0412 135.443 66.4291 135.598C68.3938 135.762 70.2309 136.638 71.5945 138.062C72.9581 139.486 73.7541 141.359 73.8326 143.329Z" fill="#CCCCCC"/>
<path d="M68.9409 127.335C69.0097 127.273 69.0631 127.196 69.097 127.11C69.131 127.024 69.1444 126.932 69.1362 126.84C69.1281 126.748 69.0986 126.659 69.0501 126.58C69.0016 126.502 68.9355 126.435 68.857 126.387C67.578 125.595 66.536 124.473 65.8405 123.139C65.1449 121.805 64.8213 120.309 64.9039 118.807C64.9865 117.305 65.472 115.853 66.3096 114.603C67.1472 113.353 68.3059 112.353 69.6639 111.705C73.8981 109.687 79.6358 111.257 82.7659 107.378C83.4025 106.548 83.8526 105.59 84.0856 104.571C84.3186 103.551 84.329 102.493 84.1161 101.469C83.4407 97.8047 80.6862 95.0835 77.6014 93.2187C73.8119 90.9279 69.4565 89.7442 65.0288 89.8018C60.601 89.8594 56.2779 91.1559 52.5493 93.5446C48.8207 95.9332 45.8356 99.3183 43.9322 103.317C42.0289 107.315 41.2834 111.766 41.7802 116.166C42.1784 119.693 43.2665 123.647 41.1696 126.51C39.3241 129.03 35.8405 129.503 32.7805 130.129C26.2171 131.472 19.8851 134.57 15.4311 139.574C10.9771 144.579 8.60095 151.6 9.94386 158.163C11.2868 164.727 16.6743 170.495 23.296 171.512C28.6857 172.34 34.251 170.051 38.209 166.3C42.1669 162.549 44.6687 157.484 46.2467 152.264C48.1197 146.069 48.8585 139.393 52.24 133.874C55.549 128.474 62.6798 124.603 68.2685 127.415C68.3756 127.471 68.4972 127.493 68.6172 127.479C68.7372 127.465 68.85 127.414 68.9409 127.335Z" fill="#2F2E41"/>
<path d="M180.604 315.617H0.586376C0.430859 315.617 0.281703 315.555 0.171736 315.445C0.0617693 315.335 0 315.186 0 315.031C0 314.875 0.0617693 314.726 0.171736 314.616C0.281703 314.506 0.430859 314.444 0.586376 314.444H180.604C180.759 314.444 180.908 314.506 181.018 314.616C181.128 314.726 181.19 314.875 181.19 315.031C181.19 315.186 181.128 315.335 181.018 315.445C180.908 315.555 180.759 315.617 180.604 315.617Z" fill="#3F3D56"/>
<path d="M362.456 115.973C362.423 132.583 356.179 148.58 344.949 160.819C333.72 173.058 318.319 180.653 301.773 182.112C285.228 183.572 268.735 178.789 255.537 168.704C242.339 158.62 233.391 143.963 230.451 127.615C227.512 111.267 230.794 94.4113 239.653 80.361C248.512 66.3107 262.306 56.0823 278.323 51.6868C294.341 47.2913 311.424 49.0465 326.213 56.6075C341.002 64.1685 352.428 76.9882 358.244 92.5464C358.389 92.9371 358.53 93.3277 358.668 93.7222V93.7259C359.282 95.4598 359.823 97.226 360.29 99.0244C361.733 104.558 362.461 110.254 362.456 115.973Z" fill="#3F3D56"/>
<path d="M288.153 70.7857C285.143 69.158 281.801 68.2392 278.382 68.0994C274.963 67.9595 271.557 68.6022 268.425 69.9786C265.666 71.179 262.762 73.3324 261.842 77.2211C265.563 75.0248 270.381 78.495 271.338 84.0618L271.115 84.1235C270.609 87.9793 271.738 92.1774 273.924 94.5682C274.087 93.4894 274.488 92.4604 275.097 91.5558C275.707 90.6512 276.511 89.8938 277.45 89.3387C279.056 88.2829 280.833 87.5159 282.059 85.7011C283.513 83.5495 283.882 80.4051 284.459 77.5366C285.036 74.6681 286.132 71.585 288.153 70.7857Z" fill="#6C63FF"/>
<path d="M267.321 103.598C266.29 105.146 264.913 106.117 263.678 107.326C262.252 108.623 261.316 110.372 261.029 112.278C260.872 113.625 261.114 114.995 261.081 116.357C261.047 117.718 260.593 119.251 259.667 119.59C258.205 120.118 257.088 117.402 255.585 117.212C254.391 117.064 253.315 118.943 253.661 120.572C254.007 122.202 255.634 122.924 256.567 121.86C257.412 123.277 256.817 125.849 255.548 126.284C255.414 127.177 255.28 128.066 255.15 128.959C251.942 126.715 248.701 124.435 245.974 121.149C242.941 117.526 241.059 113.079 240.571 108.379C240.218 104.602 240.743 100.282 239.009 97.3764C237.621 95.0509 235.239 94.5373 233.096 94.6825C232.705 94.7085 232.311 94.7531 231.92 94.8015C233.184 91.0053 234.79 87.3314 236.717 83.8249C237.153 83.6377 237.558 83.3856 237.918 83.077C239.913 81.3841 240.798 77.9571 242.417 75.5869C242.521 75.4343 242.629 75.2855 242.741 75.1404C244.396 72.9785 246.614 71.866 248.757 70.8316C253.501 68.5284 258.383 66.1954 263.391 66.5154L261.966 66.6531C260.303 71.3116 258.639 75.9702 256.973 80.6287C256.72 81.3431 256.464 82.0587 256.206 82.7756C255.261 85.4249 254.286 88.2453 254.432 91.2109C254.517 92.9671 255.127 94.8425 256.288 95.4452C257.371 96.0034 258.554 95.3187 259.6 94.6415C260.043 94.3587 260.482 94.0759 260.924 93.7894C262.513 92.7662 264.273 91.7168 265.951 92.4015C267.488 93.0265 268.623 95.114 268.839 97.3652C269.037 99.5534 268.503 101.746 267.321 103.598Z" fill="#6C63FF"/>
<path d="M276.77 135.403C272.13 132.545 267.49 129.688 262.849 126.831L262.928 126.628C260.043 127.727 258.845 132.856 259.322 137.05C259.799 141.244 261.415 144.993 262.232 149.079C263.333 154.672 262.918 160.457 261.028 165.834C267.13 158.988 272.53 151.547 277.147 143.623C277.792 142.624 278.284 141.534 278.605 140.39C278.946 139.17 278.824 137.868 278.264 136.732C277.885 136.171 277.371 135.715 276.77 135.403Z" fill="#6C63FF"/>
<path d="M258.457 83.4238C257.912 84.5938 257.828 85.9261 258.221 87.1553C258.679 88.1455 259.51 88.9148 260.532 89.2955L263.096 90.5664C263.949 90.9892 264.869 91.4163 265.738 91.0684C266.787 90.6488 267.514 89.0046 267.326 87.4782C267.126 85.8538 266.102 84.7365 265.155 83.7851C263.83 82.4535 262.505 81.122 261.179 79.7905L260.433 80.7052C259.625 81.4931 258.957 82.4124 258.457 83.4238Z" fill="#6C63FF"/>
<path d="M348.711 100.789C349.865 101.06 351.018 101.332 352.172 101.604C351.971 105.499 350.039 109.105 347.45 110.411C346.371 110.954 345.169 111.155 344.276 112.171C343.468 113.094 343.059 114.53 342.683 115.903C342.025 118.299 341.366 120.695 340.707 123.092C340.001 125.674 339.093 128.543 337.255 129.473C335.677 130.273 333.872 129.294 332.659 127.653C331.446 126.012 330.706 123.806 329.988 121.655C330.032 123.999 328.942 126.299 327.398 127.114C325.85 127.929 323.967 127.192 322.933 125.372C322.189 124.066 321.88 122.344 321.151 121.019C320.421 119.694 318.892 118.935 318.096 120.178C317.571 121.004 317.638 122.269 317.378 123.319C317.246 124.015 316.902 124.654 316.391 125.145C315.88 125.637 315.229 125.957 314.527 126.061C313.883 126.046 313.248 125.9 312.661 125.632C312.075 125.364 311.549 124.98 311.115 124.502C308.837 122.171 307.353 119.18 306.877 115.955C306.555 114.409 306.595 112.809 306.996 111.282C307.454 109.834 308.559 108.718 309.657 108.993C310.379 107.468 308.954 105.444 307.67 105.622C306.382 105.801 305.374 107.181 304.317 108.242C303.264 109.302 301.791 110.072 300.73 109.019C300.754 109.404 300.624 109.783 300.368 110.072C300.113 110.361 299.753 110.537 299.368 110.561C299.329 110.563 299.291 110.564 299.253 110.563C298.548 110.361 297.893 110.014 297.33 109.544C294.9 108.029 291.815 109.034 290.089 111.899C291.168 107.308 292.749 102.039 296.064 100.96C297.419 100.517 298.896 100.882 300.176 100.115C302.442 98.7571 302.9 93.6259 300.943 91.5088C301.192 93.5106 301.143 95.8473 300.087 97.2166C299.03 98.5859 296.812 97.6929 296.946 95.6688C296.916 95.9534 296.797 96.2213 296.605 96.434C296.414 96.6466 296.16 96.7932 295.88 96.8527C295.599 96.9122 295.308 96.8815 295.046 96.7651C294.785 96.6486 294.567 96.4524 294.424 96.2045C293.72 95.133 293.78 93.3804 294.279 92.1005C294.793 90.9412 295.53 89.8943 296.448 89.0196C298.215 87.1257 300.009 85.2094 302.055 84.0187C304.105 82.828 306.472 82.4262 308.526 83.6094C309.609 84.2345 310.561 85.2764 311.666 85.827C311.926 85.9882 312.215 86.0966 312.516 86.1461C312.818 86.1956 313.126 86.1852 313.424 86.1155C313.721 86.0458 314.002 85.9182 314.251 85.74C314.499 85.5617 314.709 85.3363 314.871 85.0766C314.883 85.0566 314.895 85.0363 314.907 85.0159C315.729 83.5722 315.342 81.429 315.648 79.6244C316.194 76.4356 319.383 74.9435 321.151 77.0495C319.83 76.7109 318.464 78.2737 318.3 80.1676C318.133 82.0615 319.089 83.9741 320.369 84.5471C322.52 85.4996 324.626 83.1033 326.252 80.8857C327.949 78.5639 329.648 76.2433 331.35 73.924C331.621 73.5291 331.926 73.1581 332.261 72.8152C332.794 72.2957 333.505 71.9982 334.249 71.983C334.993 71.9678 335.715 72.2361 336.269 72.7334C337.988 74.1361 338.795 77.0124 340.205 78.9918C342.252 81.868 345.314 82.5676 348.164 83.1257C350.289 83.5388 352.415 83.9542 354.542 84.3722C355.96 87.0101 357.197 89.7413 358.244 92.547C354.343 94.3257 351.035 97.186 348.711 100.789Z" fill="#6C63FF"/>
<path d="M355.58 145.558C353.986 148.795 352.132 151.897 350.036 154.834C348.696 154.261 347.256 155.284 346.002 156.244C344.693 157.249 343.119 158.228 341.775 157.312C340.402 156.375 339.96 153.751 340.395 151.671C340.895 149.753 341.77 147.952 342.97 146.373C344.086 144.706 345.28 142.976 346.832 142.328C348.387 141.681 350.385 142.596 350.839 144.806L351.941 144.769C351.323 143.921 351.647 142.165 352.477 141.856C353.433 141.495 354.263 142.808 354.828 143.969C355.081 144.494 355.338 145.022 355.58 145.558Z" fill="#6C63FF"/>
<path d="M313.398 129.841C311.031 129.99 309.155 127.076 307.909 124.209C306.663 121.342 305.526 118.063 303.39 116.604C302.17 115.77 300.778 115.656 299.454 115.252C298.703 115.062 298.009 114.696 297.427 114.184C296.846 113.673 296.395 113.03 296.112 112.309L294.61 111.702C292.51 112.752 290.586 114.124 288.909 115.768C286.992 117.804 285.798 120.413 285.511 123.195C285.224 126.201 286.284 129.552 288.263 130.682C289.827 131.574 291.648 131.011 293.232 131.828C295.211 132.849 296.386 135.813 296.831 138.74C297.276 141.667 297.163 144.709 297.482 147.669C297.8 150.629 298.677 153.71 300.492 155.227C302.763 157.125 306.097 155.548 307.116 152.092C307.616 150.397 307.598 148.484 307.972 146.725C308.631 143.626 310.407 141.327 311.816 138.785C313.226 136.243 314.335 132.791 313.398 129.841Z" fill="#6C63FF"/>
<path d="M290.005 99.393C290.226 99.5962 290.432 99.8149 290.622 100.047C290.818 100.386 290.918 100.772 290.911 101.163C290.905 101.554 290.791 101.936 290.584 102.268C290.869 102.252 291.148 102.176 291.402 102.047C291.657 101.918 291.882 101.737 292.063 101.516C292.495 101.024 292.875 100.488 293.197 99.9182C293.349 99.7229 293.457 99.4977 293.514 99.2574C293.572 99.0171 293.578 98.7673 293.532 98.5245C293.42 98.2054 293.155 98.0692 292.97 97.8292C292.713 97.3599 292.537 96.8504 292.451 96.3223C292.348 95.8274 292.11 95.3709 291.762 95.0042C291.414 94.6376 290.97 94.3752 290.481 94.2466L290.6 94.2693C290.398 94.3891 290.239 94.5691 290.144 94.7841C290.05 94.999 290.025 95.2382 290.073 95.468C290.145 95.9323 290.443 96.3178 290.414 96.7914C290.371 97.4723 289.69 97.7919 289.648 98.4729C289.642 98.8146 289.77 99.1451 290.005 99.393Z" fill="#6C63FF"/>
<path d="M285.949 87.8208L285.96 87.8187C286.032 87.7523 286.1 87.6804 286.162 87.6035L285.949 87.8208Z" fill="#6C63FF"/>
<path d="M286.659 91.017C286.943 90.7675 287.154 90.4447 287.267 90.0838C287.38 89.7228 287.392 89.3377 287.302 88.9705C287.13 88.1962 286.521 87.6756 285.96 87.8186C285.797 87.9837 285.595 88.1047 285.372 88.1702C285.15 88.2357 284.914 88.2436 284.688 88.193C284.341 88.1037 283.96 87.8735 283.658 88.1351C283.486 88.3304 283.366 88.5657 283.308 88.8196C283.196 89.1617 283.085 89.5037 282.974 89.8457C282.921 89.9681 282.907 90.1039 282.934 90.2345C282.955 90.2869 282.99 90.3328 283.034 90.368C283.078 90.4032 283.131 90.4264 283.187 90.4354L285.192 91.0266C285.423 91.1327 285.673 91.1868 285.927 91.1852C286.18 91.1835 286.43 91.1261 286.659 91.017Z" fill="#6C63FF"/>
<path d="M337.13 135.146C336.82 134.64 336.511 134.134 336.202 133.628C335.899 133.043 335.484 132.521 334.981 132.094C334.761 131.91 334.476 131.821 334.19 131.846C333.904 131.871 333.64 132.009 333.456 132.229L333.44 132.249L333.477 132.538C334.305 133.425 334.869 134.525 335.106 135.715C335.176 136.232 335.152 136.767 335.213 137.287C335.22 137.527 335.274 137.765 335.372 137.985C335.47 138.204 335.611 138.403 335.786 138.568C336.273 138.893 336.844 138.414 337.19 137.829C337.5 137.349 337.639 136.778 337.585 136.209C337.507 135.828 337.352 135.466 337.13 135.146Z" fill="#6C63FF"/>
<path d="M341.977 135.805C342.036 135.331 341.998 134.85 341.864 134.392C341.842 133.772 342.007 133.16 342.336 132.634C342.664 132.138 342.912 131.594 343.071 131.022C343.139 130.761 343.127 130.486 343.036 130.233C342.934 130.003 342.686 129.898 342.544 130.08L342.848 130.276C342.438 130.203 342.016 130.223 341.614 130.336C341.385 130.423 341.18 130.565 341.017 130.748C340.854 130.932 340.738 131.152 340.679 131.39C340.628 131.761 340.546 132.127 340.433 132.484C340.252 132.857 339.901 132.981 339.68 133.308C339.529 133.599 339.453 133.922 339.459 134.248C339.464 134.575 339.551 134.896 339.711 135.181C339.988 135.647 340.429 135.993 340.947 136.153C341.318 136.286 341.808 136.293 341.977 135.805Z" fill="#6C63FF"/>
<path d="M350.611 138.41C350.745 138.759 350.925 139.089 351.146 139.391C351.559 139.808 352.121 139.552 352.622 139.451C353.077 139.379 353.543 139.432 353.971 139.603C354.398 139.774 354.771 140.058 355.051 140.425C354.856 139.455 354.432 138.546 353.813 137.774C353.194 137.003 352.4 136.39 351.496 135.99C350.321 135.583 349.082 135.389 347.839 135.418L347.627 135.472C348.168 137.047 349.867 137.012 350.611 138.41Z" fill="#6C63FF"/>
<path d="M314.046 141.631L314.049 141.638L314.11 141.519L314.046 141.631Z" fill="#6C63FF"/>
<path d="M312.736 144.166C312.45 144.684 312.204 145.224 312.001 145.78C311.732 146.68 311.553 147.606 311.468 148.542C311.402 149.074 311.381 149.754 311.715 150.013C311.811 150.077 311.926 150.103 312.04 150.088C312.154 150.072 312.258 150.016 312.334 149.929C312.519 149.733 312.671 149.508 312.782 149.262C313.438 148.134 313.947 146.926 314.297 145.668C314.662 144.334 314.575 142.917 314.049 141.638C313.611 142.48 313.173 143.323 312.736 144.166Z" fill="#6C63FF"/>
<path d="M300.101 76.6261C300.309 76.8295 300.572 76.9675 300.858 77.0233C301.143 77.079 301.439 77.0499 301.708 76.9398C302.265 76.696 302.777 76.3582 303.22 75.941C303.587 75.6696 303.898 75.3301 304.137 74.9411C304.268 74.7087 304.352 74.4526 304.384 74.1875C304.417 73.9224 304.396 73.6535 304.324 73.3963C304.222 73.15 304.058 72.9338 303.849 72.7683C303.639 72.6027 303.391 72.4933 303.128 72.4503C302.386 72.2302 301.644 72.0101 300.902 71.7901L301.439 71.3063C300.886 71.0099 300.275 71.56 299.93 72.2411C299.709 72.6858 299.554 73.1608 299.472 73.6507C299.355 74.1626 299.35 74.6939 299.459 75.2077C299.567 75.7215 299.787 76.2055 300.101 76.6261Z" fill="#6C63FF"/>
<path d="M313.202 72.2283C313.411 72.4588 313.7 72.6012 314.011 72.6264C314.321 72.6517 314.629 72.5579 314.873 72.3642C315.083 72.2067 315.257 72.0067 315.384 71.7774C315.511 71.5481 315.589 71.2945 315.612 71.0332C315.664 70.4495 315.376 69.8008 314.964 69.7503L315.058 69.2038C314.264 69.0604 313.287 69.0317 312.861 69.996C312.718 70.3654 312.674 70.7659 312.733 71.1577C312.793 71.5494 312.955 71.9186 313.202 72.2283Z" fill="#6C63FF"/>
<path d="M259.22 111.541C261.956 111.541 264.173 108.567 264.173 104.899C264.173 101.231 261.956 98.2568 259.22 98.2568C256.484 98.2568 254.267 101.231 254.267 104.899C254.267 108.567 256.484 111.541 259.22 111.541Z" fill="#E6E6E6"/>
<path d="M349.738 193.789C352.103 193.159 353.665 191.315 353.227 189.67C352.789 188.025 350.517 187.202 348.152 187.832C345.787 188.462 344.225 190.306 344.663 191.951C345.102 193.596 347.374 194.419 349.738 193.789Z" fill="#E6E6E6"/>
<path d="M320.775 194.325C323.14 193.695 324.701 191.851 324.263 190.206C323.825 188.561 321.553 187.738 319.188 188.367C316.824 188.997 315.262 190.841 315.7 192.486C316.138 194.132 318.41 194.955 320.775 194.325Z" fill="#E6E6E6"/>
<path d="M354.884 169.69C357.249 169.061 358.811 167.217 358.373 165.572C357.934 163.926 355.662 163.103 353.298 163.733C350.933 164.363 349.371 166.207 349.809 167.852C350.247 169.497 352.519 170.32 354.884 169.69Z" fill="#E6E6E6"/>
<path d="M363.427 159.447C364.495 159.315 365.206 157.963 365.016 156.428C364.825 154.893 363.806 153.756 362.738 153.889C361.67 154.021 360.959 155.373 361.149 156.908C361.339 158.442 362.359 159.579 363.427 159.447Z" fill="#E6E6E6"/>
<path d="M365.59 141.266C366.657 141.134 367.369 139.782 367.178 138.247C366.988 136.713 365.968 135.576 364.9 135.708C363.833 135.84 363.121 137.192 363.312 138.727C363.502 140.262 364.522 141.399 365.59 141.266Z" fill="#E6E6E6"/>
<path d="M336.393 176.217C337.46 176.084 338.172 174.733 337.981 173.198C337.791 171.663 336.771 170.526 335.703 170.658C334.636 170.791 333.924 172.142 334.115 173.677C334.305 175.212 335.325 176.349 336.393 176.217Z" fill="#E6E6E6"/>
<path d="M351.036 181.517C352.104 181.384 352.815 180.033 352.625 178.498C352.435 176.963 351.415 175.826 350.347 175.959C349.28 176.091 348.568 177.443 348.759 178.977C348.949 180.512 349.969 181.649 351.036 181.517Z" fill="#E6E6E6"/>
<path d="M333.256 196.53C334.324 196.397 335.035 195.046 334.845 193.511C334.655 191.976 333.635 190.839 332.567 190.971C331.499 191.104 330.788 192.455 330.978 193.99C331.169 195.525 332.188 196.662 333.256 196.53Z" fill="#E6E6E6"/>
<path d="M205.766 169.465C208.131 168.836 209.693 166.992 209.254 165.346C208.816 163.701 206.544 162.878 204.179 163.508C201.815 164.138 200.253 165.982 200.691 167.627C201.129 169.272 203.401 170.095 205.766 169.465Z" fill="#E6E6E6"/>
<path d="M176.801 170.002C179.166 169.372 180.728 167.528 180.29 165.883C179.851 164.238 177.579 163.415 175.214 164.045C172.85 164.675 171.288 166.519 171.726 168.164C172.164 169.809 174.436 170.632 176.801 170.002Z" fill="#E6E6E6"/>
<path d="M210.913 145.366C213.277 144.736 214.839 142.892 214.401 141.247C213.963 139.602 211.691 138.779 209.326 139.409C206.961 140.039 205.399 141.883 205.838 143.528C206.276 145.173 208.548 145.996 210.913 145.366Z" fill="#E6E6E6"/>
<path d="M219.454 135.123C220.522 134.991 221.234 133.639 221.043 132.104C220.853 130.57 219.833 129.433 218.765 129.565C217.698 129.697 216.986 131.049 217.177 132.584C217.367 134.119 218.387 135.256 219.454 135.123Z" fill="#E6E6E6"/>
<path d="M221.617 116.942C222.685 116.81 223.396 115.458 223.206 113.923C223.016 112.388 221.996 111.251 220.928 111.384C219.86 111.516 219.149 112.868 219.339 114.403C219.53 115.938 220.549 117.074 221.617 116.942Z" fill="#E6E6E6"/>
<path d="M192.42 151.892C193.488 151.76 194.199 150.408 194.009 148.873C193.819 147.339 192.799 146.202 191.731 146.334C190.663 146.466 189.952 147.818 190.142 149.353C190.333 150.888 191.352 152.025 192.42 151.892Z" fill="#E6E6E6"/>
<path d="M207.064 157.193C208.132 157.061 208.843 155.709 208.653 154.174C208.462 152.639 207.443 151.502 206.375 151.635C205.307 151.767 204.596 153.119 204.786 154.654C204.976 156.189 205.996 157.325 207.064 157.193Z" fill="#E6E6E6"/>
<path d="M189.284 172.205C190.351 172.073 191.063 170.721 190.872 169.186C190.682 167.652 189.662 166.515 188.595 166.647C187.527 166.779 186.815 168.131 187.006 169.666C187.196 171.201 188.216 172.338 189.284 172.205Z" fill="#E6E6E6"/>
<path d="M381.741 58.0919C384.105 57.4621 385.667 55.618 385.229 53.9729C384.791 52.3278 382.519 51.5048 380.154 52.1346C377.789 52.7644 376.227 54.6085 376.666 56.2535C377.104 57.8986 379.376 58.7217 381.741 58.0919Z" fill="#E6E6E6"/>
<path d="M352.776 58.6285C355.14 57.9987 356.702 56.1546 356.264 54.5095C355.826 52.8645 353.554 52.0414 351.189 52.6712C348.824 53.301 347.263 55.1451 347.701 56.7901C348.139 58.4352 350.411 59.2582 352.776 58.6285Z" fill="#E6E6E6"/>
<path d="M386.887 33.9918C389.252 33.362 390.814 31.5179 390.376 29.8728C389.938 28.2277 387.665 27.4047 385.301 28.0345C382.936 28.6643 381.374 30.5084 381.812 32.1534C382.25 33.7985 384.522 34.6215 386.887 33.9918Z" fill="#E6E6E6"/>
<path d="M395.429 23.7497C396.497 23.6174 397.208 22.2658 397.018 20.7309C396.828 19.196 395.808 18.0591 394.74 18.1915C393.672 18.3238 392.961 19.6754 393.151 21.2103C393.342 22.7452 394.361 23.8821 395.429 23.7497Z" fill="#E6E6E6"/>
<path d="M397.592 5.56858C398.66 5.43619 399.371 4.08461 399.181 2.54974C398.99 1.01486 397.97 -0.122085 396.903 0.0102979C395.835 0.142681 395.124 1.49426 395.314 3.02914C395.504 4.56401 396.524 5.70096 397.592 5.56858Z" fill="#E6E6E6"/>
<path d="M368.395 40.5188C369.463 40.3864 370.174 39.0348 369.984 37.4999C369.793 35.9651 368.773 34.8281 367.706 34.9605C366.638 35.0929 365.927 36.4445 366.117 37.9793C366.307 39.5142 367.327 40.6512 368.395 40.5188Z" fill="#E6E6E6"/>
<path d="M383.039 45.8195C384.106 45.6872 384.818 44.3356 384.627 42.8007C384.437 41.2658 383.417 40.1289 382.349 40.2613C381.282 40.3937 380.57 41.7452 380.761 43.2801C380.951 44.815 381.971 45.9519 383.039 45.8195Z" fill="#E6E6E6"/>
<path d="M365.258 60.8322C366.326 60.6999 367.037 59.3483 366.847 57.8134C366.657 56.2785 365.637 55.1416 364.569 55.274C363.501 55.4064 362.79 56.7579 362.98 58.2928C363.171 59.8277 364.191 60.9646 365.258 60.8322Z" fill="#E6E6E6"/>
<path d="M197.063 173.586C192.324 173.586 189.243 172.409 187.88 170.068C185.191 165.452 189.694 157.352 201.265 145.994L202.237 146.984C191.489 157.535 186.816 165.485 189.078 169.369C190.51 171.826 194.771 172.707 201.404 171.915C207.987 171.129 216.713 168.786 227.337 164.952C249.21 157.058 276.651 143.743 304.606 127.459C332.56 111.176 357.678 93.8738 375.335 78.7412C378.727 75.8341 381.804 73.0373 384.483 70.4294C388 67.0893 391.244 63.4738 394.185 59.6172C398.145 54.2397 399.482 50.0983 398.05 47.6408C395.659 43.5363 385.614 43.9223 369.765 48.7291L369.363 47.4012C386.367 42.2448 396.423 42.0901 399.249 46.9426C401.005 49.9574 399.677 54.4987 395.302 60.4402C392.316 64.3578 389.022 68.0307 385.451 71.4236C382.752 74.052 379.652 76.8684 376.238 79.7948C358.52 94.9804 333.328 112.334 305.304 128.658C277.279 144.983 249.757 158.336 227.808 166.257C217.085 170.127 208.256 172.494 201.568 173.293C200.073 173.479 198.569 173.577 197.063 173.586Z" fill="#3F3D56"/>
</g>
<defs>
<clipPath id="clip0_4_3885">
<rect width="400" height="315.617" fill="white"/>
</clipPath>
</defs>
</svg>
