<svg width="64" height="64" viewBox="0 0 64 64" fill="none" xmlns="http://www.w3.org/2000/svg">
<path d="M43.027 46.8882L36.9994 50.0007V51.9232L33.5719 54.0332C32.6069 54.6257 31.3919 54.6257 30.4269 54.0332L26.9994 51.9232V50.0007L20.9719 46.8882L12.8496 52.3007L15.9996 58.2507V61.0007C15.9996 61.2657 16.1046 61.5207 16.2921 61.7082C16.4796 61.8957 16.7346 62.0007 16.9996 62.0007H46.9996C47.2646 62.0007 47.5196 61.8957 47.7072 61.7082C47.8947 61.5207 47.9997 61.2657 47.9997 61.0007V58.2507L51.1497 52.3007L43.027 46.8882Z" fill="#010403"/>
<path d="M44.855 38.5273C45.2675 36.8973 44.77 35.3398 43.745 35.0473C43.56 34.9998 43.3675 34.9948 43.18 35.0348L43.36 34.0698C43.95 31.6298 44.18 30.5299 43.85 29.1598C42.98 25.5998 38.64 21.9995 31.9998 21.9995C25.3595 21.9995 20.4471 25.507 20.1495 29.1598C20.217 31.1323 20.502 33.0898 20.9995 34.9998V35.0673C20.757 34.9873 20.4995 34.9798 20.2545 35.0473C19.2295 35.3398 18.7345 36.8973 19.1445 38.5273C19.3195 39.6349 20.0795 40.5648 21.1295 40.9573C22.0895 46.1748 28.6047 49.9999 31.9993 49.9999C35.3938 49.9999 41.909 46.1749 42.869 40.9573C43.919 40.5648 44.679 39.6349 44.8541 38.5273L44.855 38.5273ZM41.0001 39.6673C41.0001 44.1423 34.9626 48.0001 32.0004 48.0001C29.0382 48.0001 23.0007 44.1426 23.0007 39.6673V34.9998C22.9957 34.9498 22.9857 34.8973 22.9707 34.8498C27.6582 34.2298 32.188 32.7298 36.3205 30.4298C37.6005 32.2998 39.183 33.9473 41.0005 35.2998L41.0001 39.6673Z" fill="#010403"/>
<path d="M38 38.0006C38 40.6682 34 40.6682 34 38.0006C34 35.3331 38 35.3331 38 38.0006Z" fill="#010403"/>
<path d="M33.8046 43.28C32.7946 44.24 31.2046 44.24 30.1946 43.28C30.0046 43.0875 29.7446 42.98 29.4746 42.9825C29.2071 42.9825 28.9471 43.0925 28.7621 43.2875C28.5746 43.4825 28.4721 43.7425 28.4821 44.0125C28.4896 44.2825 28.6071 44.5375 28.8046 44.72C30.5946 46.4199 33.4046 46.4199 35.1946 44.72C35.3921 44.5375 35.5096 44.2825 35.5171 44.0125C35.5271 43.7425 35.4246 43.4825 35.2371 43.2875C35.0521 43.0925 34.7921 42.9825 34.5246 42.9825C34.2546 42.98 33.9946 43.0875 33.8046 43.28Z" fill="#010403"/>
<path d="M29.9995 38.0002C29.9995 40.6677 25.9995 40.6677 25.9995 38.0002C25.9995 35.3326 29.9995 35.3326 29.9995 38.0002Z" fill="#010403"/>
<path d="M13.9998 11.0005C13.9998 12.038 13.7648 13.0655 13.3148 14.0005H50.685C50.235 13.0655 50 12.038 50 11.0005C49.985 8.9655 50.8626 7.02553 52.4025 5.69299C53.9425 4.363 55.9875 3.77299 58 4.08051V3.00051C58 2.73551 57.895 2.48051 57.7075 2.29299C57.52 2.10547 57.265 2.00049 57 2.00049H7C6.4475 2.00049 6 2.44799 6 3.00049V4.08049C8.01248 3.77299 10.0575 4.36299 11.5975 5.69297C13.1375 7.02545 14.0147 8.9655 13.9998 11.0005Z" fill="#010403"/>
<path d="M56.9993 6.00006C54.8718 5.99006 52.9718 7.33503 52.2743 9.34508C51.5743 11.3551 52.2293 13.5876 53.9043 14.9001L52.0293 34.6499L44.7192 45.6201L52.0895 50.5301L59.8392 35.9003C59.9192 35.7603 59.9592 35.6003 59.9592 35.4403L59.9992 14.9802C61.7217 13.6927 62.4268 11.4452 61.7443 9.40521C61.0618 7.36521 59.1493 5.99257 56.9993 6.00006Z" fill="#010403"/>
<path d="M10.0996 14.9C11.7796 13.5725 12.4271 11.3225 11.7096 9.30496C10.9946 7.28748 9.07459 5.94995 6.93463 5.97747C4.7921 6.00497 2.90711 7.39244 2.24464 9.42745C1.58211 11.4625 2.28714 13.695 3.99965 14.98L4.03965 35.4401C4.03965 35.6001 4.07965 35.7601 4.15965 35.9001L11.9094 50.5299L19.2797 45.6199L11.9696 34.6496L10.0996 14.9Z" fill="#010403"/>
</svg>
