<svg width="24" height="24" viewBox="0 0 24 24" fill="none" xmlns="http://www.w3.org/2000/svg">
<g clip-path="url(#clip0_3_60)">
<path d="M19.9548 4.0452C17.8295 1.92082 15.0048 0.75 12 0.75C8.9952 0.75 6.16968 1.92 4.0452 4.0452C1.92082 6.16958 0.75 8.9952 0.75 12C0.75 15.0048 1.92 17.8303 4.0452 19.9548C6.17052 22.0792 8.9952 23.25 12 23.25C15.0048 23.25 17.8303 22.08 19.9548 19.9548C22.0792 17.8295 23.25 15.0048 23.25 12C23.25 8.9952 22.08 6.16968 19.9548 4.0452ZM22.5658 10.2103C22.6464 10.5863 22.7036 10.9744 22.7354 11.3644C22.7139 11.7366 22.6989 11.9709 22.4992 12.8391C22.3361 13.5506 21.8673 14.955 21.3001 15.7126C20.7583 16.216 19.6229 16.637 19.2498 16.7373C19.1917 16.5779 19.1345 16.4091 19.0754 16.2329C18.8832 15.6657 18.6648 15.0235 18.3104 14.3279C18.0995 13.9135 17.8361 13.5376 17.6036 13.2057C17.4929 13.0482 17.3945 12.9066 17.3167 12.7838C18.1192 11.4319 18.3217 8.23126 18.3564 7.51798C19.0876 7.3286 20.2689 7.08859 20.9309 7.29579C21.7352 7.9764 22.2977 9.40611 22.5649 10.2106L22.5658 10.2103ZM4.7364 7.14384C4.95953 7.10259 5.2764 7.05665 5.60453 7.0304C6.30108 6.97509 7.3014 6.96478 8.88965 7.36227C9.00965 8.88289 10.4534 12.0572 10.8659 12.9048C10.7656 13.0623 10.654 13.2386 10.535 13.428C9.77842 14.6252 8.64122 16.4241 7.87337 17.3767C6.69869 17.5417 4.25465 16.7523 3.66857 16.5545C3.01418 15.8692 2.42638 13.9819 2.05044 11.3551C2.39731 10.5779 3.85524 7.7496 4.7364 7.14384ZM8.20512 17.5642C8.98606 16.5835 10.1036 14.8135 10.8516 13.6294C10.9716 13.439 11.0832 13.2628 11.1835 13.1053C13.0679 13.4437 16.2309 13.0547 16.98 12.9544C17.0653 13.0931 17.174 13.2478 17.295 13.4212C17.52 13.7428 17.7759 14.1084 17.9746 14.4994C18.3168 15.1706 18.5306 15.7997 18.719 16.3547C18.7978 16.5853 18.8718 16.8047 18.9496 17.0109C18.5165 18.0806 16.8009 20.1197 16.2225 20.7909C14.5294 21.3722 12.1041 21.2869 10.7606 21.1772C9.50998 20.0381 8.45247 18.0517 8.20412 17.5649L8.20512 17.5642ZM20.7329 5.52864C20.8548 5.9477 20.896 6.40238 20.8548 6.88896C20.1516 6.75115 19.1429 6.92927 18.3273 7.13645C16.9473 5.67113 14.2576 4.33229 13.7073 4.06709C13.6783 3.90209 13.6454 3.7427 13.6108 3.58802C13.4954 3.01802 13.3454 2.44054 13.1645 1.86396C13.577 1.70833 14.2079 1.54334 14.6758 1.46083C17.1338 2.08522 19.261 3.54958 20.7319 5.52859L20.7329 5.52864ZM9.9516 1.3212C11.4619 1.44307 12.5054 1.82933 12.7464 1.94465C12.7548 1.97184 12.7642 1.99996 12.7736 2.02809C12.9076 2.43589 13.0951 3.00496 13.2433 3.66964C13.2742 3.82151 13.3023 3.97245 13.3276 4.12245C12.1689 4.6287 9.53276 6.60213 9.01148 7.00629C7.82555 6.70722 6.9518 6.62754 6.2834 6.62754C6.01715 6.62754 5.78279 6.64067 5.57466 6.6566C5.26621 6.68098 4.96621 6.72317 4.7384 6.76254C4.65309 6.27973 4.45434 5.06003 4.44402 4.18902C5.93463 2.74715 7.83498 1.7271 9.95082 1.32126L9.9516 1.3212ZM3.27192 18.4774C1.92473 16.667 1.12692 14.4254 1.12692 12.0002C1.12692 11.6918 1.14098 11.3862 1.16629 11.0834L1.68942 11.4856C1.91817 13.0568 2.41317 15.634 3.2991 16.7036C3.13598 17.1611 3.17535 17.8521 3.27192 18.4764L3.27192 18.4774ZM12 22.8732C11.0813 22.8732 10.1897 22.7579 9.33744 22.5432C10.1034 22.2057 10.7409 21.7154 10.9059 21.5645C12.2465 21.6638 14.4562 21.7191 16.1211 21.2185C16.3236 21.3891 16.6039 21.572 16.873 21.7182C15.4067 22.4569 13.751 22.8732 12.0007 22.8732H12ZM21.6187 16.3922C21.5812 16.2291 21.5456 16.0744 21.5531 15.9948H21.5512C21.5578 15.9882 21.5643 15.9826 21.5709 15.976C21.5784 15.9685 21.5859 15.961 21.5915 15.9526C22.1447 15.2204 22.6069 13.9229 22.814 13.1345C22.6753 14.4685 22.2937 15.7313 21.7153 16.879C21.6881 16.6962 21.6506 16.5321 21.6187 16.3915L21.6187 16.3922Z" fill="#BBE3D3"/>
</g>
<defs>
<clipPath id="clip0_3_60">
<rect width="24" height="24" fill="white"/>
</clipPath>
</defs>
</svg>
