<svg width="56" height="56" viewBox="0 0 56 56" fill="none" xmlns="http://www.w3.org/2000/svg">
<path d="M51.4545 27.9999C51.4545 34.4287 48.8557 40.2566 44.6532 44.5003C44.9639 43.4416 45.2592 42.4484 45.5282 41.6412C46.0576 40.0575 46.4689 39.1934 46.8035 38.5547C46.9085 38.3469 47.0201 38.1434 47.1295 37.9488C47.4467 37.3625 47.7486 36.8091 47.9323 36.2425C48.2254 35.3456 48.2101 34.4925 47.8951 33.95C47.5932 33.4337 47.0923 33.2937 46.7926 33.2084C46.7204 33.1931 46.646 33.1712 46.576 33.1428C46.3594 33.0619 46.1648 32.8869 45.9854 32.6134C45.7491 32.2503 45.5588 31.7253 45.4473 31.1391C45.3291 30.5003 45.2919 29.726 45.2766 28.7612C45.2613 27.8862 45.2569 26.88 45.4101 26.086C45.4998 25.6375 45.6463 25.2307 45.7841 24.8412C45.8891 24.5481 45.9963 24.2462 46.0773 23.9422C46.2654 23.205 46.2851 22.4241 46.1298 21.7437C46.0444 21.3653 45.9088 21.0437 45.7929 20.7615C45.7273 20.6018 45.6616 20.4443 45.6048 20.2759C45.5041 19.9543 45.4429 19.5672 45.3685 19.1187L45.316 18.7731C45.1979 18.0731 45.0338 17.279 44.5679 16.6709C44.2551 16.2684 43.8504 16.0125 43.4938 15.7872C43.3276 15.6822 43.1679 15.5794 43.0301 15.4744C42.6801 15.1966 42.4023 14.8159 42.2688 14.4331C42.1266 14.0218 42.1266 13.5406 42.1266 13.0768C42.1266 12.5518 42.1266 12.099 42.0894 11.6637C42.0522 11.2087 41.9757 10.7953 41.8335 10.0515C41.7766 9.73436 41.7001 9.34718 41.6169 8.92281C47.5647 13.1775 51.4539 20.1402 51.4539 27.9998L51.4545 27.9999ZM28.0481 28.3499C26.8516 27.6608 25.5959 26.9215 24.5744 26.1056C23.3035 25.0949 22.5378 24.0865 22.2294 23.0146C22.1769 22.8265 22.05 22.6734 21.8838 22.5793C21.7131 22.4853 21.5185 22.4656 21.3303 22.5181C21.1422 22.575 20.9891 22.6975 20.895 22.8681C20.801 23.0343 20.7813 23.2312 20.8338 23.4215C21.2253 24.7734 22.0763 25.9503 23.5135 27.1271C24.0188 27.5384 24.6007 27.9584 25.2963 28.4024C25.5566 28.5731 25.6988 28.8793 25.6594 29.1877C25.6179 29.5005 25.4035 29.763 25.1016 29.8549C24.8041 29.949 24.5197 30.0343 24.2419 30.1196C22.3366 30.7059 20.9606 31.1324 20.5888 31.8783C20.3394 32.3793 20.4422 33.2258 20.8994 34.4596C20.9475 34.5909 20.9607 34.733 20.941 34.8709C20.8229 35.5752 20.615 36.1856 20.3132 36.6865C20.031 37.159 19.6482 37.5506 19.1822 37.8502C18.7141 38.1521 18.1432 38.3708 17.4891 38.4977C17.4804 38.5021 17.4738 38.5021 17.4651 38.5021C17.2945 38.5436 17.1479 38.6355 17.0407 38.7755C17.032 38.7864 17.0298 38.7996 17.021 38.8127C16.9116 38.9746 16.8701 39.1671 16.9073 39.3574C16.9445 39.5455 17.0538 39.7118 17.2201 39.8211C17.2288 39.8299 17.2398 39.8321 17.2485 39.8408C17.4038 39.9349 17.5854 39.9677 17.7648 39.9349C18.6201 39.7686 19.377 39.4711 20.0113 39.0511C20.6413 38.6355 21.1685 38.0909 21.5622 37.4302C21.9035 36.8593 22.1572 36.2009 22.3082 35.468C22.3694 35.1793 22.586 34.943 22.8703 34.8621C23.1525 34.7768 23.4566 34.8512 23.6688 35.0568L26.5235 37.8655C26.6832 38.0252 26.7685 38.2352 26.7641 38.4562C26.7641 38.5415 26.7598 38.6268 26.7554 38.7209C26.7401 38.9856 26.7138 39.2787 26.6744 39.5959C26.6219 39.9831 26.5476 40.4337 26.4513 40.9478L26.3944 41.2584C26.2632 41.9628 26.1254 42.6868 25.9591 43.3671C25.8694 43.7259 25.5479 43.9818 25.1738 43.9818L18.5367 43.9862C20.0308 44.9356 21.643 45.6728 23.3339 46.1737C26.8426 47.2128 30.6598 47.2128 34.1727 46.1737C35.8505 45.6728 37.454 44.9443 38.9414 44.0037L28.3474 44.6621C28.0871 44.6774 27.8311 44.5637 27.6671 44.3603C27.5205 44.1809 27.4593 43.9446 27.5008 43.7215C27.5118 43.6362 27.5621 43.2337 27.6102 42.8531C27.7086 42.105 27.7086 42.105 27.7196 42.0503C27.7961 41.6959 27.8049 41.6718 27.8202 41.5734C27.8289 41.5078 27.8443 41.4181 27.8814 41.2146C27.9799 40.7093 28.0564 40.2259 28.1133 39.7775C28.1702 39.329 28.2074 38.9265 28.2139 38.5765C28.2249 38.2222 28.2139 37.9115 28.1768 37.6643C28.1658 37.5834 28.1396 37.5025 28.1002 37.4237C28.0564 37.3472 28.0061 37.2772 27.9449 37.2247L25.5474 34.8666C25.3724 34.6916 25.2827 34.4422 25.3112 34.1994C25.3396 33.95 25.4818 33.7312 25.694 33.6L29.3952 31.3491C29.6599 31.1872 29.999 31.1894 30.2593 31.36C30.8215 31.7297 31.2809 32.0688 31.6681 32.3947C32.8252 33.3791 33.3983 34.3657 33.4181 35.4004C33.4268 35.5994 33.5034 35.7788 33.6412 35.9144C33.779 36.0479 33.9518 36.1266 34.1552 36.1179C34.3543 36.1135 34.5381 36.0326 34.6715 35.8947C34.8027 35.7569 34.8749 35.5732 34.8706 35.3785C34.8421 33.9369 34.1946 32.6988 32.834 31.4826C32.3659 31.0582 31.7993 30.636 31.1146 30.1832C30.8456 30.0038 30.7078 29.6866 30.7646 29.3695C30.8171 29.0567 31.0534 28.7985 31.364 28.722C31.609 28.6564 31.8365 28.547 32.0443 28.3917C32.4599 28.0898 32.764 27.6304 32.8865 27.1339C33.208 25.8279 32.4796 25.152 31.6899 24.9551C30.758 24.7276 29.5877 25.1148 29.2421 26.5192C29.1808 26.7642 29.1699 27.0158 29.2005 27.2651C29.2093 27.3351 29.2202 27.3986 29.2334 27.4642C29.3055 27.777 29.1896 28.1073 28.9315 28.2998C28.6755 28.4879 28.3259 28.5096 28.0481 28.3499ZM23.3056 10.6422C23.4565 10.8828 23.4675 11.1869 23.3384 11.445C23.205 11.6965 22.9468 11.865 22.6625 11.8803C17.7844 12.1319 13.1055 15.33 10.7166 19.797C13.0703 18.5633 15.7894 18.1914 17.7513 19.6133C17.9788 19.7751 18.1057 20.0442 18.086 20.3264C18.0663 20.6085 17.9022 20.8557 17.655 20.9848C15.146 22.2886 13.3303 24.1764 12.3 26.5257C12.9344 27.3854 13.4572 28.0045 13.7175 28.2145C14.1485 28.5557 14.5028 28.8007 15.0322 29.0282C15.3013 29.142 15.6229 29.2601 15.9641 29.3826C16.3382 29.516 16.7254 29.656 17.1126 29.8179C17.8651 30.1307 18.5454 30.5026 19.2673 30.8963C19.276 30.9007 19.2848 30.9073 19.2913 30.9117C19.9563 29.8704 21.2579 29.3607 23.0298 28.8029C22.8417 28.6607 22.6645 28.5185 22.4873 28.3764C20.8095 27.0048 19.7595 25.5304 19.2782 23.8679C19.1076 23.2642 19.1776 22.6298 19.4773 22.0851C19.7791 21.5404 20.2757 21.1401 20.8773 20.9651C21.4832 20.7901 22.1154 20.8601 22.6601 21.1598C23.0342 21.3676 23.336 21.6738 23.5482 22.0348C23.6204 21.9167 23.6991 21.8029 23.7801 21.6848C24.2044 21.057 24.6966 20.3329 25.1932 19.7029C25.7466 18.9985 26.2651 18.4582 26.7769 18.0491C27.2932 17.6379 27.8488 17.3294 28.6866 16.9773L29.0169 16.8394C29.4129 16.6798 30.1282 16.3866 30.3404 16.192C30.2966 16.017 30.0582 15.6342 29.9773 15.5007C29.5507 14.8051 28.9798 13.9607 28.5838 13.3788L28.5138 13.2804C28.0326 12.5804 27.6213 11.9766 27.4113 11.2395C27.175 10.4257 27.2122 9.496 27.5053 8.93819C27.7088 8.54662 28.2338 7.94508 29.4106 8.32348C29.8984 8.47879 30.465 8.77629 31.1497 9.23129C31.6594 9.56817 32.2413 10.0057 32.7138 10.3557L33.0179 10.5832C33.1032 10.6488 33.23 10.7428 33.3438 10.8194C33.405 10.686 33.4772 10.4935 33.5319 10.2441C33.6172 9.86568 33.6304 9.49159 33.6413 9.09567L33.65 8.91192C33.661 8.44379 33.6938 7.90565 33.8119 7.1291C33.8885 6.60848 34.0066 5.99381 34.1291 5.35721C32.1778 4.8344 30.1216 4.54565 27.9999 4.54565C23.8349 4.54565 19.9258 5.64594 16.5289 7.55565C17.091 7.54034 17.6532 7.56659 18.2154 7.65409C20.4335 7.98659 22.3366 9.10659 23.3056 10.6422ZM45.7078 37.1744C46.001 36.6319 46.2569 36.1638 46.3926 35.7416C46.5391 35.2975 46.5391 34.9607 46.5107 34.8141C46.4669 34.8032 46.4101 34.7857 46.3641 34.7726C46.2416 34.7397 46.1191 34.7026 45.9988 34.6588C45.4607 34.4554 45.0013 34.0638 44.6338 33.5016C44.2751 32.9569 44.006 32.2438 43.8551 31.4366C43.7173 30.6841 43.6757 29.8375 43.6604 28.7941C43.6407 27.8338 43.6407 26.7247 43.8223 25.7775C43.936 25.2066 44.1066 24.7232 44.2619 24.2944C44.356 24.0254 44.4501 23.7738 44.5113 23.5419C44.6382 23.0453 44.6535 22.5356 44.5529 22.1004C44.5004 21.8554 44.4019 21.6279 44.3013 21.3829C44.2204 21.1838 44.1394 20.9848 44.0694 20.7682C43.9272 20.3285 43.8529 19.8647 43.7763 19.3747L43.7194 19.0379C43.6626 18.6747 43.5488 17.9966 43.2929 17.6663C43.1507 17.4869 42.9057 17.3316 42.6279 17.1522C42.4332 17.0297 42.2298 16.9007 42.0285 16.7454C41.4291 16.2729 40.9698 15.6385 40.7379 14.9538C40.506 14.2888 40.506 13.6194 40.506 13.0769C40.506 12.5891 40.506 12.1647 40.4776 11.795C40.4448 11.4406 40.3835 11.0994 40.2413 10.3535C40.1144 9.68192 39.9285 8.71284 39.7316 7.70657C38.4563 6.96502 37.1023 6.33939 35.6847 5.84502C35.5797 6.39846 35.4813 6.9322 35.4113 7.37628C35.3107 8.07192 35.28 8.55755 35.2647 8.97536L35.2604 9.15036C35.2494 9.60318 35.2319 10.0757 35.1138 10.6073C34.9957 11.117 34.7113 12.0247 34.0922 12.3901C33.3353 12.8341 32.6266 12.3091 32.0557 11.8848L31.7451 11.6529C31.2682 11.2985 30.7279 10.896 30.251 10.5788C29.7063 10.2157 29.2579 9.97508 28.9188 9.86571C28.91 9.86571 28.9035 9.86133 28.8947 9.85696C28.8619 10.0648 28.8575 10.4191 28.9647 10.7932C29.1069 11.2788 29.4372 11.7579 29.8528 12.366L29.9185 12.4645C30.3297 13.0682 30.9072 13.9301 31.3556 14.6564C31.7516 15.2995 32.3488 16.2729 31.6335 17.1698C31.2135 17.6948 30.4085 18.0251 29.6254 18.3423L29.3125 18.4736C28.6125 18.7667 28.1838 19.003 27.7813 19.3202C27.37 19.6461 26.9391 20.0989 26.4688 20.7004C26.005 21.2954 25.5281 21.9867 25.1169 22.5926C24.7515 23.1417 24.5503 23.4435 24.4869 23.7826L24.4715 23.7782C24.7603 24.1239 25.1278 24.4782 25.5828 24.8414C26.1931 25.327 26.9106 25.7929 27.6522 26.2414C27.6609 26.2042 27.6675 26.1692 27.6762 26.1276C28.2581 23.787 30.38 22.9667 32.0819 23.3867C33.6262 23.7651 35.0306 25.2242 34.4641 27.5189C34.2606 28.337 33.7728 29.0917 33.1166 29.6123C33.4053 29.8354 33.6744 30.0564 33.9194 30.2795C35.6081 31.7954 36.4525 33.4514 36.4919 35.3436C36.5029 35.9714 36.271 36.5642 35.84 37.0127C35.4047 37.4655 34.8185 37.7214 34.1907 37.7324C33.5628 37.7368 32.9722 37.5114 32.5216 37.0761C32.0731 36.6452 31.8172 36.0633 31.8041 35.4355C31.7932 34.8864 31.406 34.2958 30.6185 33.6264C30.3822 33.423 30.1088 33.2151 29.7916 32.9964L27.4225 34.4423L29.0544 36.048C29.2294 36.2033 29.3956 36.4176 29.5269 36.6627C29.6581 36.9077 29.7435 37.1636 29.7785 37.4327C29.8266 37.7739 29.8485 38.1786 29.831 38.6249C29.82 39.0274 29.7828 39.4846 29.7172 39.9855C29.6516 40.4624 29.5707 40.9742 29.4678 41.5124C29.435 41.6961 29.4241 41.7814 29.411 41.8383C29.3935 41.9521 29.3913 41.9805 29.2972 42.383C29.2863 42.4683 29.2557 42.7133 29.2207 42.9824L39.1192 42.3633H39.1673C40.0271 42.3633 40.7271 43.0633 40.7271 43.923C40.7271 44.4852 40.4252 44.9971 39.9418 45.2749C38.2924 46.3424 36.5052 47.1649 34.6283 47.7183C32.7274 48.2849 30.7477 48.5693 28.7528 48.5693C26.7534 48.5693 24.7781 48.2849 22.8728 47.7183C20.9675 47.1518 19.1541 46.3183 17.4806 45.2268C17.264 45.089 17.089 44.8965 16.9665 44.6777C16.8944 44.5443 16.8397 44.3999 16.8069 44.2468C16.7215 43.8399 16.7959 43.4243 17.0234 43.0787C17.264 42.7134 17.6337 42.4684 18.0537 42.3896C18.115 42.3809 18.1762 42.3743 18.2375 42.3699C18.2659 42.3699 18.2987 42.3655 18.3271 42.3655H24.5241C24.6225 41.9062 24.7122 41.4293 24.8019 40.9655L24.8588 40.6527C24.9485 40.1715 25.0185 39.7493 25.0666 39.3949C25.095 39.1718 25.1147 38.964 25.1279 38.7715L23.4916 37.1593C23.3363 37.5508 23.1569 37.9206 22.9491 38.2662C22.4241 39.1368 21.735 39.8587 20.8972 40.4077C20.0878 40.9415 19.1341 41.3156 18.0709 41.5234C18.0228 41.5321 17.9769 41.5409 17.9331 41.5431C17.3622 41.624 16.789 41.4906 16.3078 41.1646C16.2881 41.1537 16.2706 41.1406 16.251 41.1231C15.7631 40.7731 15.4284 40.2546 15.3147 39.6683C15.2009 39.0733 15.3147 38.4718 15.6363 37.9621C15.6472 37.9424 15.6603 37.9205 15.6734 37.9052C16.0234 37.3846 16.5572 37.0346 17.1719 36.9121C17.1806 36.9121 17.1916 36.9077 17.2003 36.9077C17.6444 36.818 18.0141 36.6802 18.3029 36.4921C18.5632 36.3259 18.7666 36.1137 18.9219 35.8534C19.0926 35.5712 19.2194 35.2234 19.3047 34.8121C18.9876 33.9087 18.8366 33.1584 18.841 32.5108C18.736 32.4496 18.6201 32.3883 18.5151 32.3358C17.8063 31.9443 17.1632 31.5899 16.4872 31.3099C16.1372 31.1634 15.7698 31.0321 15.4154 30.9074C15.05 30.774 14.7022 30.6515 14.3894 30.5159C13.6938 30.2184 13.2279 29.8968 12.7029 29.4768C12.4469 29.269 12.0991 28.8993 11.677 28.3699C11.6245 28.5777 11.5785 28.7855 11.5392 28.9977C10.6641 33.6571 12.3376 39.2463 16.2904 45.1263C17.3907 46.7625 18.6639 48.4206 20.1141 50.0853C22.5773 50.9691 25.2329 51.4525 27.9978 51.4525C33.4228 51.4525 38.4166 49.5997 42.396 46.4978C42.9451 44.5509 43.5116 42.5734 43.9951 41.1275C44.4435 39.7844 44.8504 38.7913 45.3623 37.8047C45.4804 37.5903 45.5941 37.3778 45.7078 37.1744ZM9.95296 28.6999C10.6114 25.2021 12.5189 22.3562 15.4982 20.3766C13.5842 20.0223 11.1298 21.1226 9.44352 22.6319C9.17009 22.8769 8.77197 22.9097 8.46571 22.7129C8.16165 22.5138 8.02165 22.1376 8.13102 21.7876C9.9401 15.9888 15.1702 11.4365 20.9365 10.4431C20.1556 9.85247 19.1078 9.42155 17.9725 9.25092C15.8177 8.92498 13.6434 9.53311 11.9614 10.9047C7.40487 15.1899 4.5459 21.2647 4.5459 27.9998C4.5459 36.8853 9.51372 44.6335 16.8133 48.6128C11.2942 41.4487 8.866 34.4662 9.95296 28.6999Z" fill="#4DB58C"/>
<g clip-path="url(#clip0_3_10)">
<mask id="path-2-inside-1_3_10" fill="white">
<path d="M4.62 33.1799H51.66C51.66 43.3862 43.3862 51.6599 33.18 51.6599H23.1C12.8938 51.6599 4.62 43.3862 4.62 33.1799Z"/>
</mask>
<path d="M51.4545 28.7753C51.4545 35.8758 48.8557 42.3126 44.6532 46.9996C44.9639 45.8303 45.2592 44.7334 45.5283 43.8419C46.0576 42.0927 46.4689 41.1383 46.8035 40.4328C46.9085 40.2033 47.0201 39.9786 47.1295 39.7636C47.4467 39.1161 47.7486 38.5048 47.9323 37.8791C48.2254 36.8885 48.2101 35.9462 47.8951 35.347C47.5932 34.7768 47.0923 34.6222 46.7926 34.528C46.7204 34.5111 46.646 34.4869 46.576 34.4555C46.3594 34.3661 46.1648 34.1728 45.9854 33.8708C45.7491 33.4698 45.5588 32.8899 45.4473 32.2424C45.3291 31.537 45.2919 30.6817 45.2766 29.6162C45.2613 28.6498 45.2569 27.5384 45.4101 26.6614C45.4998 26.1661 45.6463 25.7167 45.7841 25.2866C45.8891 24.9629 45.9963 24.6295 46.0773 24.2936C46.2654 23.4794 46.2851 22.6169 46.1298 21.8655C46.0444 21.4475 45.9088 21.0923 45.7929 20.7807C45.7273 20.6043 45.6616 20.4304 45.6048 20.2443C45.5041 19.8892 45.4429 19.4615 45.3685 18.9662L45.316 18.5845C45.1979 17.8114 45.0338 16.9343 44.5679 16.2627C44.2551 15.8181 43.8504 15.5354 43.4938 15.2866C43.3276 15.1706 43.1679 15.0571 43.0301 14.9411C42.6801 14.6343 42.4023 14.2139 42.2688 13.7911C42.1266 13.3369 42.1266 12.8053 42.1266 12.2931C42.1266 11.7133 42.1266 11.2131 42.0894 10.7324C42.0522 10.2298 41.9757 9.77318 41.8335 8.95174C41.7766 8.60141 41.7001 8.17379 41.6169 7.70508C47.5647 12.4043 51.4539 20.0944 51.4539 28.7752L51.4545 28.7753ZM28.0481 29.1619C26.8516 28.4008 25.5959 27.5842 24.5744 26.683C23.3035 25.5668 22.5378 24.453 22.2294 23.2692C22.1769 23.0614 22.05 22.8923 21.8838 22.7884C21.7131 22.6845 21.5185 22.6628 21.3303 22.7207C21.1422 22.7836 20.9891 22.9189 20.895 23.1073C20.801 23.2909 20.7813 23.5084 20.8338 23.7186C21.2253 25.2117 22.0763 26.5115 23.5135 27.8114C24.0188 28.2656 24.6007 28.7295 25.2963 29.2199C25.5566 29.4083 25.6988 29.7466 25.6594 30.0872C25.6179 30.4327 25.4035 30.7226 25.1016 30.8241C24.8041 30.928 24.5197 31.0222 24.2419 31.1165C22.3366 31.764 20.9606 32.2351 20.5888 33.0589C20.3394 33.6122 20.4422 34.5472 20.8994 35.9099C20.9475 36.0549 20.9607 36.2119 20.941 36.3641C20.8229 37.1421 20.615 37.8162 20.3132 38.3694C20.031 38.8913 19.6482 39.3238 19.1822 39.6548C18.7141 39.9882 18.1432 40.2298 17.4891 40.3699C17.4804 40.3747 17.4738 40.3747 17.4651 40.3747C17.2945 40.4206 17.1479 40.5221 17.0407 40.6767C17.032 40.6888 17.0298 40.7033 17.021 40.7178C16.9116 40.8966 16.8701 41.1092 16.9073 41.3194C16.9445 41.5272 17.0538 41.7108 17.2201 41.8316C17.2288 41.8412 17.2398 41.8437 17.2485 41.8533C17.4038 41.9572 17.5854 41.9935 17.7648 41.9572C18.6201 41.7736 19.377 41.445 20.0113 40.9811C20.6413 40.5221 21.1685 39.9205 21.5622 39.1909C21.9035 38.5603 22.1572 37.8331 22.3082 37.0237C22.3694 36.7048 22.586 36.4438 22.8703 36.3545C23.1525 36.2602 23.4566 36.3424 23.6688 36.5695L26.5235 39.6717C26.6832 39.848 26.7685 40.08 26.7641 40.324C26.7641 40.4182 26.7598 40.5125 26.7554 40.6164C26.7401 40.9087 26.7138 41.2324 26.6744 41.5828C26.6219 42.0104 26.5476 42.5081 26.4513 43.0759L26.3944 43.419C26.2632 44.197 26.1254 44.9967 25.9591 45.7481C25.8694 46.1443 25.5479 46.427 25.1738 46.427L18.5367 46.4318C20.0308 47.4804 21.643 48.2946 23.3339 48.8478C26.8426 49.9955 30.6598 49.9955 34.1727 48.8478C35.8505 48.2946 37.454 47.49 38.9414 46.4511L28.3474 47.1784C28.0871 47.1953 27.8311 47.0696 27.6671 46.8449C27.5205 46.6468 27.4593 46.3859 27.5008 46.1395C27.5118 46.0453 27.5621 45.6007 27.6102 45.1803C27.7086 44.354 27.7086 44.354 27.7196 44.2936C27.7961 43.9022 27.8049 43.8756 27.8202 43.7669C27.8289 43.6944 27.8443 43.5954 27.8814 43.3707C27.9799 42.8126 28.0564 42.2786 28.1133 41.7833C28.1702 41.288 28.2074 40.8435 28.2139 40.4569C28.2249 40.0656 28.2139 39.7225 28.1768 39.4495C28.1658 39.3601 28.1396 39.2707 28.1002 39.1837C28.0564 39.0991 28.0061 39.0218 27.9449 38.9638L25.5474 36.3594C25.3724 36.1661 25.2827 35.8907 25.3112 35.6225C25.3396 35.347 25.4818 35.1054 25.694 34.9605L29.3952 32.4744C29.6599 32.2956 29.999 32.298 30.2593 32.4865C30.8215 32.8948 31.2809 33.2693 31.6681 33.6293C32.8252 34.7165 33.3983 35.8061 33.4181 36.9489C33.4268 37.1688 33.5034 37.3669 33.6412 37.5167C33.779 37.6641 33.9518 37.7511 34.1552 37.7414C34.3543 37.7366 34.5381 37.6472 34.6715 37.495C34.8027 37.3428 34.8749 37.1398 34.8706 36.9248C34.8421 35.3326 34.1946 33.9651 32.834 32.6218C32.3659 32.1531 31.7993 31.6868 31.1146 31.1867C30.8456 30.9886 30.7078 30.6383 30.7646 30.2879C30.8171 29.9425 31.0534 29.6574 31.364 29.5728C31.609 29.5003 31.8365 29.3795 32.0443 29.208C32.4599 28.8746 32.764 28.3672 32.8865 27.8188C33.208 26.3764 32.4796 25.6298 31.6899 25.4124C30.758 25.1611 29.5877 25.5888 29.2421 27.1399C29.1809 27.4105 29.1699 27.6883 29.2005 27.9638C29.2093 28.0411 29.2202 28.1111 29.2334 28.1836C29.3055 28.5291 29.1896 28.8939 28.9315 29.1066C28.6755 29.3143 28.3259 29.3383 28.0481 29.1619ZM23.3056 9.60406C23.4565 9.86983 23.4675 10.2057 23.3384 10.4908C23.205 10.7686 22.9468 10.9546 22.6625 10.9715C17.7844 11.2494 13.1055 14.7817 10.7166 19.7154C13.0703 18.3528 15.7894 17.942 17.7513 19.5124C17.9788 19.6912 18.1057 19.9884 18.086 20.3001C18.0663 20.6117 17.9022 20.8847 17.655 21.0273C15.146 22.4672 13.3303 24.5523 12.3 27.1471C12.9344 28.0966 13.4572 28.7803 13.7175 29.0123C14.1485 29.3892 14.5028 29.6598 15.0322 29.911C15.3013 30.0367 15.6229 30.1671 15.9641 30.3024C16.3382 30.4498 16.7254 30.6044 17.1126 30.7832C17.8651 31.1287 18.5454 31.5395 19.2673 31.9743C19.276 31.9792 19.2848 31.9864 19.2913 31.9913C19.9563 30.8412 21.2579 30.2783 23.0298 29.6622C22.8417 29.5052 22.6645 29.3481 22.4873 29.1911C20.8095 27.6762 19.7595 26.0478 19.2782 24.2116C19.1076 23.5448 19.1776 22.8441 19.4773 22.2425C19.7791 21.6409 20.2757 21.1988 20.8773 21.0055C21.4832 20.8122 22.1154 20.8895 22.6601 21.2205C23.0342 21.4501 23.336 21.7883 23.5482 22.187C23.6204 22.0565 23.6991 21.9309 23.7801 21.8004C24.2044 21.107 24.6966 20.3072 25.1932 19.6114C25.7466 18.8335 26.2651 18.2367 26.7769 17.7849C27.2932 17.3307 27.8488 16.99 28.6866 16.601L29.0169 16.4488C29.4129 16.2724 30.1282 15.9487 30.3404 15.7337C30.2966 15.5404 30.0582 15.1176 29.9773 14.9702C29.5507 14.2019 28.9798 13.2693 28.5838 12.6266L28.5138 12.5179C28.0326 11.7448 27.6213 11.078 27.4113 10.2638C27.175 9.365 27.2122 8.33816 27.5053 7.72206C27.7088 7.28959 28.2338 6.6252 29.4106 7.04313C29.8984 7.21466 30.465 7.54324 31.1497 8.04579C31.6594 8.41786 32.2413 8.90106 32.7138 9.28763L33.0179 9.5389C33.1032 9.61138 33.23 9.71527 33.3438 9.79982C33.405 9.65245 33.4772 9.43984 33.5319 9.16443C33.6172 8.74646 33.6304 8.33328 33.6413 7.896L33.65 7.69305C33.661 7.17601 33.6938 6.58165 33.8119 5.72397C33.8885 5.14895 34.0066 4.47007 34.1291 3.76695C32.1778 3.18951 30.1216 2.87061 27.9999 2.87061C23.8349 2.87061 19.9258 4.08585 16.5289 6.19508C17.091 6.17817 17.6532 6.20716 18.2154 6.3038C20.4335 6.67104 22.3366 7.90806 23.3056 9.60406ZM45.7078 38.9083C46.001 38.3092 46.2569 37.7921 46.3926 37.3258C46.5391 36.8354 46.5391 36.4633 46.5107 36.3014C46.4669 36.2894 46.4101 36.27 46.3641 36.2555C46.2416 36.2193 46.1191 36.1782 45.9988 36.1299C45.4607 35.9052 45.0013 35.4727 44.6338 34.8518C44.2751 34.2502 44.006 33.4626 43.8551 32.5711C43.7173 31.7399 43.6757 30.8049 43.6604 29.6525C43.6407 28.5918 43.6407 27.3669 43.8223 26.3208C43.936 25.6902 44.1066 25.1562 44.2619 24.6827C44.356 24.3855 44.4501 24.1077 44.5113 23.8515C44.6382 23.3031 44.6535 22.7402 44.5529 22.2594C44.5004 21.9888 44.4019 21.7375 44.3013 21.467C44.2204 21.2471 44.1394 21.0272 44.0694 20.788C43.9273 20.3024 43.8529 19.7902 43.7763 19.249L43.7194 18.8769C43.6626 18.4759 43.5488 17.7269 43.2929 17.3621C43.1507 17.164 42.9057 16.9924 42.6279 16.7943C42.4332 16.659 42.2298 16.5164 42.0285 16.3449C41.4291 15.823 40.9698 15.1224 40.7379 14.3662C40.506 13.6317 40.506 12.8924 40.506 12.2932C40.506 11.7544 40.506 11.2857 40.4776 10.8774C40.4448 10.486 40.3835 10.1091 40.2413 9.28521C40.1144 8.54349 39.9285 7.47317 39.7316 6.36177C38.4563 5.54274 37.1023 4.85174 35.6847 4.30573C35.5797 4.91698 35.4813 5.5065 35.4113 5.99697C35.3107 6.76528 35.28 7.30165 35.2647 7.76312L35.2604 7.9564C35.2494 8.45652 35.2319 8.97837 35.1138 9.56551C34.9957 10.1285 34.7113 11.1311 34.0922 11.5346C33.3353 12.0251 32.6266 11.4452 32.0557 10.9765L31.7451 10.7204C31.2682 10.329 30.7279 9.88442 30.251 9.53409C29.7063 9.13303 29.2579 8.86728 28.9188 8.74649C28.91 8.74649 28.9035 8.74165 28.8947 8.73682C28.8619 8.96634 28.8575 9.35774 28.9647 9.7709C29.1069 10.3073 29.4372 10.8364 29.8528 11.508L29.9185 11.6168C30.3297 12.2836 30.9072 13.2355 31.3556 14.0377C31.7516 14.748 32.3488 15.8231 31.6335 16.8137C31.2135 17.3936 30.4085 17.7584 29.6254 18.1087L29.3125 18.2537C28.6125 18.5775 28.1838 18.8384 27.7813 19.1887C27.37 19.5487 26.9391 20.0488 26.4688 20.7132C26.005 21.3704 25.5281 22.1339 25.1169 22.8031C24.7515 23.4095 24.5503 23.7429 24.4869 24.1174L24.4715 24.1126C24.7603 24.4943 25.1278 24.8857 25.5828 25.2868C26.1931 25.8231 26.9106 26.3377 27.6522 26.833C27.6609 26.7919 27.6675 26.7533 27.6762 26.7074C28.2581 24.1222 30.38 23.2162 32.0819 23.6801C33.6262 24.0981 35.0306 25.7096 34.4641 28.244C34.2606 29.1476 33.7728 29.9811 33.1166 30.5562C33.4053 30.8026 33.6744 31.0466 33.9194 31.2931C35.6081 32.9674 36.4525 34.7964 36.4919 36.8862C36.5029 37.5796 36.271 38.2344 35.84 38.7297C35.4047 39.2298 34.8185 39.5125 34.1907 39.5246C33.5628 39.5294 32.9722 39.2806 32.5216 38.7998C32.0731 38.3238 31.8172 37.6811 31.8041 36.9877C31.7932 36.3813 31.406 35.7289 30.6185 34.9896C30.3822 34.7649 30.1088 34.5354 29.7916 34.2938L27.4225 35.8908L29.0544 37.6642C29.2294 37.8357 29.3956 38.0725 29.5269 38.3431C29.6581 38.6137 29.7435 38.8964 29.7785 39.1936C29.8266 39.5705 29.8485 40.0174 29.831 40.5103C29.82 40.9549 29.7828 41.4598 29.7172 42.0131C29.6516 42.5398 29.5707 43.1051 29.4678 43.6995C29.435 43.9025 29.4241 43.9967 29.411 44.0595C29.3935 44.1851 29.3913 44.2166 29.2972 44.6611C29.2863 44.7553 29.2557 45.0259 29.2207 45.3231L39.1192 44.6393H39.1673C40.0271 44.6393 40.7271 45.4125 40.7271 46.362C40.7271 46.9829 40.4252 47.5483 39.9418 47.8551C38.2924 49.0341 36.5052 49.9426 34.6283 50.5539C32.7274 51.1796 30.7477 51.4937 28.7528 51.4937C26.7534 51.4937 24.7781 51.1796 22.8728 50.5539C20.9675 49.9281 19.1541 49.0076 17.4806 47.802C17.264 47.6498 17.089 47.4372 16.9665 47.1956C16.8944 47.0482 16.8397 46.8887 16.8069 46.7196C16.7215 46.2702 16.7959 45.8112 17.0234 45.4295C17.264 45.026 17.6337 44.7554 18.0537 44.6684C18.115 44.6587 18.1762 44.6515 18.2375 44.6467C18.2659 44.6467 18.2987 44.6418 18.3271 44.6418H24.5241C24.6225 44.1345 24.7122 43.6077 24.8019 43.0956L24.8588 42.7501C24.9485 42.2185 25.0185 41.7522 25.0666 41.3608C25.095 41.1144 25.1147 40.8849 25.1279 40.6723L23.4916 38.8916C23.3363 39.3241 23.1569 39.7324 22.9491 40.1142C22.4241 41.0758 21.735 41.8731 20.8972 42.4795C20.0878 43.069 19.1341 43.4821 18.0709 43.7117C18.0228 43.7213 17.9769 43.731 17.9331 43.7334C17.3622 43.8228 16.789 43.6754 16.3078 43.3154C16.2881 43.3034 16.2706 43.2889 16.251 43.2695C15.7631 42.883 15.4284 42.3103 15.3147 41.6628C15.2009 41.0057 15.3147 40.3413 15.6363 39.7783C15.6472 39.7566 15.6603 39.7324 15.6734 39.7155C16.0234 39.1405 16.5572 38.7539 17.1719 38.6186C17.1806 38.6186 17.1916 38.6138 17.2003 38.6138C17.6444 38.5147 18.0141 38.3625 18.3029 38.1547C18.5632 37.9711 18.7666 37.7368 18.9219 37.4493C19.0926 37.1376 19.2194 36.7535 19.3047 36.2992C18.9876 35.3014 18.8366 34.4727 18.841 33.7575C18.736 33.6899 18.6201 33.6222 18.5151 33.5642C17.8063 33.1318 17.1632 32.7404 16.4872 32.4311C16.1372 32.2693 15.7698 32.1243 15.4154 31.9866C15.05 31.8392 14.7022 31.7039 14.3894 31.5541C13.6938 31.2255 13.2279 30.8703 12.7029 30.4065C12.4469 30.1769 12.0991 29.7687 11.677 29.1839C11.6245 29.4135 11.5785 29.643 11.5392 29.8773C10.6642 35.0235 12.3376 41.1966 16.2904 47.691C17.3907 49.4982 18.6639 51.3295 20.1142 53.1682C22.5773 54.1442 25.2329 54.6782 27.9978 54.6782C33.4228 54.6782 38.4166 52.6318 42.396 49.2058C42.9451 47.0555 43.5116 44.8714 43.9951 43.2745C44.4435 41.791 44.8504 40.6941 45.3623 39.6045C45.4804 39.3677 45.5941 39.133 45.7078 38.9083ZM9.95296 29.5485C10.6114 25.6852 12.5189 22.542 15.4982 20.3556C13.5842 19.9642 11.1298 21.1794 9.44353 22.8465C9.17009 23.1171 8.77197 23.1533 8.46571 22.9359C8.16165 22.716 8.02165 22.3005 8.13102 21.9139C9.9401 15.5093 15.1702 10.4814 20.9365 9.3842C20.1556 8.73186 19.1078 8.25592 17.9725 8.06746C15.8177 7.70747 13.6434 8.37914 11.9614 9.89398C7.40487 14.627 4.5459 21.3364 4.5459 28.7752C4.5459 38.589 9.51372 47.1467 16.8133 51.5418C11.2942 43.6292 8.866 35.9172 9.95296 29.5485Z" fill="#2F535A" fill-opacity="0.7"/>
</g>
<path d="M4.62 33.1799H51.66H4.62ZM53.34 33.1799C53.34 44.314 44.3141 53.3399 33.18 53.3399H23.1C11.9659 53.3399 2.94 44.314 2.94 33.1799L6.3 33.1799C6.3 42.4583 13.8216 49.9799 23.1 49.9799H33.18C42.4584 49.9799 49.98 42.4583 49.98 33.1799L53.34 33.1799ZM23.1 53.3399C11.9659 53.3399 2.94 44.314 2.94 33.1799V33.1799H6.3V33.1799C6.3 42.4583 13.8216 49.9799 23.1 49.9799V53.3399ZM53.34 33.1799V33.1799C53.34 44.314 44.3141 53.3399 33.18 53.3399V49.9799C42.4584 49.9799 49.98 42.4583 49.98 33.1799V33.1799H53.34Z" fill="#0F2125" mask="url(#path-2-inside-1_3_10)"/>
<defs>
<clipPath id="clip0_3_10">
<path d="M4.62 33.1799H51.66C51.66 43.3862 43.3862 51.6599 33.18 51.6599H23.1C12.8938 51.6599 4.62 43.3862 4.62 33.1799Z" fill="white"/>
</clipPath>
</defs>
</svg>
