<svg width="64" height="64" viewBox="0 0 64 64" fill="none" xmlns="http://www.w3.org/2000/svg">
<path d="M46.3725 25.9921C46.3175 25.8946 46.235 25.8121 46.125 25.7721L37.485 21.9271C37.2775 21.8296 37.03 21.8846 36.8775 22.0646C33.9775 25.6346 29.9975 25.6146 27.1226 22.0646C26.9851 21.8846 26.7376 21.8296 26.5301 21.9271L17.8773 25.7721C17.7673 25.8146 17.6848 25.8971 17.6298 25.9921C17.4498 26.3096 13.3448 33.8596 13.0698 38.3121C13.0698 38.4646 13.1248 38.6146 13.2498 38.7246C13.3598 38.8346 16.1423 41.3021 19.7125 40.7221C19.8775 40.6946 20.015 40.5971 20.0975 40.4471L20.91 38.8496L20.6625 56.8598C20.6625 56.9698 20.705 57.0798 20.7725 57.1773C23.71 60.9323 40.2701 60.9523 43.2327 57.1773C43.3027 57.0798 43.3427 56.9698 43.3427 56.8598L43.0952 38.8496L43.9077 40.4471C43.9902 40.5996 44.1277 40.6946 44.2927 40.7221C47.8626 41.2871 50.6452 38.8346 50.7554 38.7246C50.8804 38.6146 50.9354 38.4621 50.9354 38.3121C50.6604 33.8621 46.5529 26.3095 46.3754 25.9921H46.3725Z" fill="#010403"/>
<path d="M32 22.0376C36.1475 22.0376 39.5098 15.6576 39.5098 11.5102C39.5098 7.36292 36.1348 4.00049 32 4.00049C27.8652 4.00049 24.4902 7.36299 24.4902 11.5102C24.4902 15.6575 27.8527 22.0376 32 22.0376Z" fill="#010403"/>
</svg>
