<svg width="40" height="40" viewBox="0 0 40 40" fill="none" xmlns="http://www.w3.org/2000/svg">
<path d="M37.5 26.0501V10.9253C37.5 9.54405 36.3812 8.42529 35 8.42529H5C3.61876 8.42529 2.5 9.54405 2.5 10.9253V26.0501C2.5 27.4298 3.61876 28.5501 5 28.5501H23.65C24.1141 28.5501 24.5594 28.7345 24.8875 29.0626L27.0156 31.1907C27.3578 31.5329 27.861 31.6579 28.325 31.5188C28.7875 31.3782 29.1359 30.9938 29.2312 30.5188L29.3437 29.9547V29.9563C29.5078 29.1375 30.225 28.5501 31.0594 28.5501H35C36.3813 28.5485 37.5 27.4298 37.5 26.0501ZM11.6672 23.7673C11.2453 23.7673 10.8656 23.5142 10.7047 23.1235C10.5438 22.7345 10.6328 22.2876 10.9297 21.9892C11.2282 21.6907 11.6766 21.6017 12.0656 21.7626C12.4547 21.9251 12.7078 22.3048 12.7078 22.7251C12.7078 23.0017 12.5985 23.2673 12.4032 23.4626C12.2078 23.6579 11.9422 23.7673 11.6672 23.7673ZM12.7094 19.3953V20.225H12.7078C12.7078 20.8 12.2422 21.2672 11.6672 21.2672C11.0906 21.2672 10.625 20.8 10.625 20.225V19.2265C10.6344 18.3843 11.2016 17.6515 12.0141 17.4297C12.5594 17.2703 12.925 16.7578 12.8969 16.189C12.8703 15.6203 12.4578 15.1453 11.8984 15.0375C11.5375 14.9703 11.1656 15.0656 10.8828 15.3C10.6 15.5328 10.4359 15.8812 10.4359 16.2484C10.4359 16.8234 9.96872 17.2906 9.39372 17.2906C8.81872 17.2906 8.35308 16.8234 8.35308 16.2484C8.35308 15.0031 9.04996 13.8625 10.1578 13.2968C11.2671 12.7296 12.6 12.8312 13.6093 13.5609C14.6171 14.2906 15.1328 15.5234 14.9437 16.7531C14.7531 17.9843 13.8906 19.0047 12.7078 19.3953L12.7094 19.3953ZM25.833 23.35H19.1674C18.5908 23.35 18.1252 22.8843 18.1252 22.3093C18.1252 21.7328 18.5908 21.2671 19.1674 21.2671H25.8346H25.833C26.4096 21.2671 26.8752 21.7328 26.8752 22.3093C26.8752 22.8843 26.4096 23.35 25.833 23.35ZM30.833 19.1828L19.1674 19.1843C18.5908 19.1843 18.1252 18.7171 18.1252 18.1421C18.1252 17.5671 18.5908 17.0999 19.1674 17.0999H30.833C31.4096 17.0999 31.8752 17.5671 31.8752 18.1421C31.8752 18.7171 31.4096 19.1843 30.833 19.1843V19.1828ZM30.833 15.0156L19.1674 15.0171C18.5908 15.0171 18.1252 14.5499 18.1252 13.9749C18.1252 13.3999 18.5908 12.9343 19.1674 12.9343H30.833C31.4096 12.9343 31.8752 13.3999 31.8752 13.9749C31.8752 14.5499 31.4096 15.0171 30.833 15.0171V15.0156Z" fill="black"/>
</svg>
