<svg width="24" height="24" viewBox="0 0 24 24" fill="none" xmlns="http://www.w3.org/2000/svg">
<path d="M5.25839 17.743C4.09684 16.3865 3.07778 14.9136 2.21903 13.3472C1.58903 15.3994 1.57684 17.5904 2.18434 19.6491C2.29684 20.0082 2.54996 20.3053 2.8856 20.4741C4.82154 21.4013 6.9872 21.7388 9.11336 21.4444C7.7043 20.3466 6.41231 19.1062 5.25839 17.743Z" fill="#BBE3D3"/>
<path d="M21.8155 4.35281C21.704 3.99374 21.4508 3.69562 21.1143 3.52781C19.2674 2.63906 17.2068 2.29219 15.1714 2.52842C16.5261 3.60374 17.7711 4.80936 18.8904 6.12842C20.0154 7.44281 21.0092 8.86322 21.8566 10.3716C22.4125 8.40194 22.3986 6.31505 21.8155 4.35281Z" fill="#BBE3D3"/>
<path d="M12.4284 3.08517C12.2765 3.13111 12.1237 3.16298 11.9728 3.21548C10.1456 3.86048 8.4534 4.83923 6.98436 6.10292C5.56875 7.30105 4.37532 8.73908 3.45756 10.3507C3.37881 10.4922 3.31881 10.6385 3.24475 10.7791C4.15601 12.821 5.3513 14.7243 6.79699 16.4295C8.24918 18.1291 9.93475 19.6143 11.8041 20.8404C11.9579 20.7907 12.1107 20.7551 12.2635 20.6989C14.0007 20.0501 15.6103 19.1004 17.0193 17.8947C18.5006 16.645 19.7371 15.1308 20.6652 13.4295C20.7402 13.287 20.7964 13.1426 20.8667 13.001H20.8658C19.9583 10.9929 18.7752 9.12168 17.352 7.43976C15.9204 5.76725 14.2629 4.302 12.4281 3.08496L12.4284 3.08517ZM13.6049 7.28517C13.1287 7.43142 12.6637 7.61143 12.2146 7.82517L12.9196 8.65298V8.65392C13.0406 8.83392 13.0068 9.07672 12.8409 9.21736C12.6759 9.35893 12.4312 9.3533 12.2718 9.20518L11.4355 8.22266L11.4346 8.2236C10.9733 8.48986 10.5318 8.79079 10.1146 9.12267L11.0624 10.2373V10.2364C11.1824 10.4173 11.1487 10.6602 10.9837 10.8008C10.8177 10.9414 10.573 10.9367 10.4146 10.7886L9.46679 9.67392L9.46586 9.67486C9.07118 10.033 8.70366 10.4211 8.36618 10.8345L9.2043 11.8199L9.20524 11.8189C9.32524 11.9999 9.29149 12.2417 9.12649 12.3833C8.96055 12.5239 8.71588 12.5183 8.55649 12.3711L7.85056 11.5414C7.604 11.8986 7.38088 12.2708 7.18117 12.6552C7.13899 12.7714 7.04992 12.8633 6.93556 12.9083C6.82212 12.9543 6.69368 12.9477 6.584 12.8924C6.47432 12.8371 6.39369 12.7368 6.36275 12.6177C6.33181 12.4986 6.35432 12.373 6.42275 12.2708C6.67401 11.7843 6.95994 11.3164 7.27962 10.8711L6.35994 9.79676C6.26994 9.71332 6.22026 9.59613 6.22307 9.47331C6.22588 9.35144 6.28026 9.23613 6.37307 9.15644C6.46682 9.07675 6.58963 9.04113 6.71056 9.058C6.8315 9.07488 6.94025 9.14331 7.00775 9.24456L7.80275 10.1792H7.80369C8.14494 9.76956 8.5143 9.38424 8.90807 9.02518L8.21714 8.21424V8.21518C8.12808 8.13174 8.07745 8.01362 8.08026 7.89173C8.08307 7.76892 8.13745 7.65361 8.2312 7.57392C8.32401 7.49518 8.44683 7.45955 8.56775 7.47642C8.68963 7.4933 8.79744 7.5608 8.86494 7.66299L9.55588 8.47486C9.97401 8.14299 10.4137 7.84018 10.8731 7.56831L10.0771 6.63269H10.0762C9.98714 6.54925 9.93651 6.43113 9.93932 6.30924C9.94214 6.18643 9.99651 6.07112 10.0903 5.99237C10.1831 5.91268 10.3059 5.87706 10.4268 5.89393C10.5487 5.91081 10.6565 5.97831 10.7249 6.08049L11.6399 7.15581C12.1931 6.87926 12.7687 6.64956 13.3603 6.47049C13.574 6.43487 13.7803 6.56424 13.8421 6.77143C13.9031 6.97956 13.7999 7.20081 13.6012 7.28611L13.6049 7.28517Z" fill="#BBE3D3"/>
</svg>
