<svg width="24" height="24" viewBox="0 0 24 24" fill="none" xmlns="http://www.w3.org/2000/svg">
<path d="M20.76 8.37548V5.95196L22.9678 4.84757C23.0878 4.77539 23.0878 4.60757 22.9678 4.55976L20.76 3.45538V3.26319C20.76 3.02319 20.5678 2.80758 20.3044 2.80758C20.0644 2.80758 19.8488 2.99976 19.8488 3.26319V8.13543C18.5532 7.82324 16.9688 7.58324 15.2165 7.46324V5.23105L17.4243 4.12667C17.5443 4.05448 17.5443 3.88667 17.4243 3.83886L15.2165 2.73447V2.54229C15.2165 2.30229 15.0243 2.08667 14.7609 2.08667C14.4965 2.08667 14.3053 2.27886 14.3053 2.54229V7.41453C13.5609 7.36671 12.7931 7.36671 12.0009 7.36671C11.2087 7.36671 10.4165 7.39109 9.67311 7.4389V5.25452L11.8809 4.15013C12.0009 4.07795 12.0009 3.91013 11.8809 3.86232L9.67311 2.75794V2.56575C9.67311 2.32575 9.48092 2.11014 9.21749 2.11014C8.95311 2.11014 8.76188 2.30232 8.76188 2.56575V7.48575C7.00969 7.63013 5.42636 7.84575 4.12964 8.18137V6.16575L6.33745 5.06137C6.45745 4.98918 6.45745 4.82137 6.33745 4.77356L4.12964 3.66918V3.47699C4.12964 3.23699 3.93745 3.02137 3.67402 3.02137C3.40964 3.02137 3.21841 3.21356 3.21841 3.47699V8.42147C1.58434 8.87992 0.600006 9.52773 0.600006 10.2477C0.600006 11.8555 5.71225 13.1522 12 13.1522C18.2878 13.1522 23.4 11.8566 23.4 10.2477C23.4 9.52773 22.3922 8.87986 20.76 8.37548ZM19.0556 10.872C17.5434 10.4876 14.9511 10.2476 12.0001 10.2476C9.04786 10.2476 6.43234 10.4876 4.94458 10.872C4.03239 10.6798 3.31239 10.4641 2.83239 10.2476C4.22458 9.67196 7.39239 8.95196 12.0002 8.95196C16.6079 8.95196 19.7757 9.64757 21.1679 10.2476C20.6879 10.4398 19.9678 10.6554 19.0556 10.872Z" fill="#10281E"/>
<path d="M0.86438 12.4801L1.41657 17.4001L1.60782 19.2001C1.65564 19.5357 1.84782 19.8245 2.16002 19.9679C3.6244 20.6157 6.0245 21.0723 8.88002 21.2879C8.92783 21.6723 9.24002 21.9601 9.64782 21.9601H14.3756C14.76 21.9601 15.0712 21.6723 15.1434 21.2879C17.9989 21.0723 20.3989 20.6157 21.8634 19.9679C22.1756 19.8235 22.3912 19.5357 22.4156 19.2001L22.6078 17.4245L23.1356 12.48C19.9678 14.3756 12.9833 14.4478 12.0001 14.4478C10.9923 14.4478 4.00766 14.3757 0.86438 12.4801ZM4.41566 17.8323C4.41566 17.9279 4.34347 17.9767 4.24785 17.9767C3.86346 17.9289 3.48004 17.8567 3.12004 17.7845C3.04785 17.7601 3.00004 17.7123 3.00004 17.6401V16.3445C3.00004 16.2489 3.07223 16.1767 3.16785 16.2001C3.52785 16.2723 3.88785 16.3445 4.29566 16.4158C4.36785 16.4158 4.41566 16.488 4.41566 16.5601V17.8323ZM7.58438 18.1679C7.58438 18.2401 7.51219 18.3123 7.44001 18.3123C7.05562 18.2879 6.6722 18.2645 6.3122 18.2167C6.24001 18.2167 6.1922 18.1445 6.1922 18.0723V16.8001C6.1922 16.7045 6.26438 16.6557 6.33657 16.6557C6.69657 16.6801 7.08096 16.7279 7.46438 16.7514C7.53657 16.7514 7.60875 16.8236 7.60875 16.8957L7.60782 18.1679H7.58438ZM13.8721 20.6402H10.1044L9.79219 17.4724C11.16 16.7768 12.7922 16.7768 14.1599 17.4724L13.8721 20.6402ZM19.5844 16.5357C19.5844 16.4635 19.6322 16.4157 19.7044 16.3913C20.0888 16.3191 20.4722 16.2469 20.8322 16.1757C20.9278 16.1513 21 16.2235 21 16.3201V17.6157C21 17.6879 20.9522 17.7357 20.88 17.7601C20.52 17.8322 20.1356 17.9044 19.7522 17.9522C19.6566 17.9766 19.5844 17.9044 19.5844 17.8079V16.5357ZM16.4157 16.8957C16.4157 16.8235 16.4635 16.7513 16.56 16.7513C16.9444 16.7269 17.3278 16.7035 17.6878 16.6557C17.76 16.6557 17.8322 16.7035 17.8322 16.8001V18.0723C17.8322 18.1444 17.7844 18.2166 17.7122 18.2166C17.3522 18.2644 16.9678 18.2888 16.5844 18.3123C16.5122 18.3123 16.44 18.2401 16.44 18.1679V16.8957H16.4157Z" fill="#10281E"/>
</svg>
