<svg width="56" height="57" viewBox="0 0 56 57" fill="none" xmlns="http://www.w3.org/2000/svg">
<path fill-rule="evenodd" clip-rule="evenodd" d="M52.5956 38.1725V43.9517C52.5956 48.3814 49.2968 52.0762 45.0401 52.7084V45.0415C48.411 44.0812 51.3423 41.4584 52.5956 38.1747V38.1725ZM10.3027 15.6039H10.8518L13.6911 20.1649C9.87613 21.3111 6.60377 24.4961 6.60377 28.6853V33.57C6.60377 34.7643 6.88377 35.9369 7.40658 37.0109C5.04848 35.9106 3.40348 33.5153 3.40348 30.7546V22.5035C3.40348 18.7104 6.50758 15.6039 10.3027 15.6039ZM12.2977 15.6039L14.949 19.8608C15.6687 19.7274 16.4146 19.6574 17.178 19.6574H38.8232C39.5866 19.6574 40.3325 19.7274 41.0522 19.8608L43.7035 15.6039H12.2977ZM45.1495 15.6039H45.6986C49.4917 15.6039 52.5978 18.708 52.5978 22.5031V30.7542C52.5978 33.5148 50.9528 35.9101 48.5969 37.0105C49.1197 35.9364 49.3997 34.764 49.3997 33.5696V28.6849C49.3997 24.498 46.125 21.3108 42.3123 20.1645L45.1517 15.6036L45.1495 15.6039ZM46.8076 37.5621C47.6783 36.2321 48.1683 35.239 48.1683 33.5677V28.683C48.1683 24.9249 45.0555 22.1557 41.6342 21.2479L39.5473 24.5992C41.8092 24.5992 43.6576 26.4126 43.6576 28.6832V33.568C43.6576 35.8123 41.8245 37.6454 39.5823 37.652H45.6964C46.0726 37.652 46.4445 37.6214 46.8055 37.5624L46.8076 37.5621ZM38.1013 24.6009H17.8999L15.6533 20.9915C16.1499 20.9237 16.6596 20.8865 17.178 20.8865H38.8232C39.3416 20.8865 39.8513 20.9215 40.3479 20.9915L38.1013 24.6009ZM16.454 24.6009L14.3671 21.2496C10.9458 22.1575 7.83298 24.9268 7.83298 28.6848V33.5695C7.83298 35.2407 8.32517 36.2338 9.19362 37.5638C9.55455 37.6229 9.92425 37.6535 10.3027 37.6535H16.419C14.1768 37.6492 12.3437 35.8138 12.3437 33.5694V28.6847C12.3437 26.4163 14.1921 24.6009 16.454 24.6009ZM11.0683 4.89394C12.6586 1.04394 14.249 7.46205 15.8392 3.60986V7.45986C14.658 10.3189 13.479 7.52112 12.2977 7.46205V14.3725H11.0683V4.89394ZM43.7034 4.89394C45.2937 1.04394 46.8841 7.46205 48.4744 3.60986V7.45986C47.2931 10.3189 46.1141 7.52112 44.9328 7.46205V14.3725H43.7034L43.7013 4.89389L43.7034 4.89394ZM35.5442 4.89394C37.1345 1.04394 38.7249 7.46205 40.3152 3.60986V7.45986C39.1361 10.3189 37.9549 7.52112 36.7736 7.46205V14.3725H35.5442V4.89394ZM27.385 4.89394C28.9753 1.04394 30.5657 7.46205 32.156 3.60986V7.45986C30.9747 10.3189 29.7957 7.52112 28.6144 7.46205V14.3725H27.385V4.89394ZM19.2258 4.89394C20.8161 1.04394 22.4065 7.46205 23.9968 3.60986V7.45986C22.8155 10.3189 21.6365 7.52112 20.4552 7.46205V14.3725H19.2258V4.89394ZM12.1889 52.8025V45.3147C12.7423 45.4044 13.3067 45.4526 13.882 45.4526H23.3538C22.236 46.1591 21.4901 47.4082 21.4901 48.8213V52.8047H12.1891L12.1889 52.8025ZM34.5077 52.8025V48.8191C34.5077 47.406 33.7618 46.1569 32.644 45.4503H42.1158C42.6911 45.4503 43.2577 45.4022 43.8089 45.3125V52.8003H34.5079L34.5077 52.8025ZM10.9569 52.7063C6.69999 52.0763 3.40137 48.3794 3.40137 43.9495V38.1703C4.65482 41.4538 7.58608 44.0767 10.9569 45.0371V52.7063ZM4.09017 35.983C4.60204 39.5661 7.56609 42.6548 10.9569 43.753V38.8814H10.3006C7.81562 38.8814 5.5843 37.7527 4.09017 35.983ZM12.1861 38.8814H27.3828V44.2189H13.8818C13.3043 44.2189 12.7377 44.1664 12.1887 44.0636V38.8792L12.1861 38.8814ZM28.612 38.8814H43.8087V44.0658C43.2575 44.1664 42.6909 44.2211 42.1156 44.2211H28.6146V38.8836L28.612 38.8814ZM45.0379 38.8814V43.753C48.4286 42.6549 51.3928 39.5661 51.9046 35.983C50.4106 37.7527 48.1794 38.8814 45.6942 38.8814H45.0379Z" fill="black"/>
</svg>
