<svg width="24" height="24" viewBox="0 0 24 24" fill="none" xmlns="http://www.w3.org/2000/svg">
<path d="M23.1122 13.4156C22.8722 13.3434 22.68 13.1756 22.5366 12.96L22.321 12.6244C22.2488 12.5287 22.1532 12.48 22.0566 12.48C21.9844 12.48 21.9122 12.48 21.841 12.5756C19.7766 14.64 18.0732 9.14337 21.6966 9.81561C21.8644 9.83999 22.0088 9.6478 21.9122 9.50342C21.2879 8.5678 19.6566 8.23123 18.6 8.83123C17.52 9.45561 17.2322 10.5112 16.9444 11.2312C16.6566 11.9756 16.4888 12.479 16.1766 12.959C15.9609 13.2947 15.481 13.2947 15.2644 12.959L15.0488 12.6234C15.0009 12.5278 14.8809 12.479 14.7844 12.479C14.7122 12.479 14.64 12.479 14.5687 12.5747C12.5044 14.6391 10.801 9.14243 14.4244 9.81467C14.5922 9.83905 14.7366 9.64686 14.64 9.50248C13.9922 8.59029 12.4078 8.25467 11.3522 8.85467C10.2966 9.45467 9.98443 10.5347 9.69662 11.2547C9.40882 11.9991 9.24101 12.5025 8.92882 12.9825C8.71319 13.3181 8.2332 13.3181 8.01662 12.9825L7.801 12.6469C7.75319 12.5512 7.63319 12.5025 7.53661 12.5025C7.46443 12.5025 7.39224 12.5025 7.32099 12.5981C5.25661 14.6625 3.55323 9.16587 7.17661 9.83811C7.34443 9.86249 7.48881 9.6703 7.39224 9.52592C6.74443 8.61373 5.16005 8.27811 4.10448 8.87811C3.04886 9.47811 2.73667 10.5581 2.44886 11.2781C2.16106 12.0225 1.99325 12.5025 1.68106 13.0059C1.48887 13.3181 1.20106 13.4381 0.98544 13.5103C0.817627 13.5581 0.697632 13.7025 0.697632 13.8703V15.1425C0.697632 15.3581 0.865445 15.5269 1.08202 15.5269H23.1143C23.3299 15.5269 23.4986 15.3591 23.4986 15.1425V13.8469C23.4002 13.6078 23.2801 13.4878 23.1122 13.4156Z" fill="#BBE3D3"/>
</svg>
