<svg width="48" height="48" viewBox="0 0 48 48" fill="none" xmlns="http://www.w3.org/2000/svg">
<path d="M42.0001 8.0003H39.9995V7.49966C39.9995 5.56656 38.4339 3.99902 36.5007 3.99902C34.5676 3.99902 33.0001 5.56651 33.0001 7.49966V8.0003H32.0007V7.49966C32.0007 5.56656 30.4333 3.99902 28.5001 3.99902C26.5669 3.99902 24.9995 5.56651 24.9995 7.49966V8.0003H23.0007V7.49966C23.0007 5.56656 21.4332 3.99902 19.5001 3.99902C17.5669 3.99902 15.9994 5.56651 15.9994 7.49966V8.0003H15V7.49966C15 5.56656 13.4326 3.99902 11.4994 3.99902C9.5663 3.99902 8.00064 5.56651 8.00064 7.49966V8.0003H6C4.34438 8.00218 3.00187 9.34282 3 11.0003V41.9997C3 43.104 3.89626 44.0003 5.00064 44.0003H42.9994C44.1037 44.0003 45 43.104 45 41.9997V11.0003C44.9981 9.34282 43.6558 8.00218 42.0001 8.0003ZM39.9995 29.9997V35.0003H25.5001V29.9997H39.9995ZM26.0008 26.0003V20.9997H31.0014V26.0003H26.0008ZM35.0008 26.0003V20.9997H40.0014V26.0003H35.0008ZM17.0008 26.0003V20.9997H22.0014V26.0003H17.0008ZM22.0014 29.9997V35.0003H17.0008V29.9997H22.0014ZM8.00078 26.0003V20.9997H13.0014V26.0003H8.00078ZM13.0014 29.9997V35.0003H8.00078V29.9997H13.0014ZM40.0014 39.5003H8.00078C7.44768 39.5003 6.99955 39.0522 6.99955 38.4991C6.99955 37.9478 7.44768 37.4997 8.00078 37.4997H39.9995C40.5526 37.4997 41.0007 37.9478 41.0007 38.4991C41.0007 39.0522 40.5526 39.5003 39.9995 39.5003H40.0014ZM35.0008 7.49966C35.0008 6.6709 35.672 5.99966 36.5008 5.99966C37.3277 5.99966 38.0008 6.6709 38.0008 7.49966V8.0003H35.0008V7.49966ZM27.0001 7.49966C27.0001 6.6709 27.6714 5.99966 28.5001 5.99966C29.3289 5.99966 30.0001 6.6709 30.0001 7.49966V8.0003H27.0001V7.49966ZM18.0001 7.49966C18.0001 6.6709 18.6714 5.99966 19.5001 5.99966C20.3289 5.99966 21.0001 6.6709 21.0001 7.49966V8.0003H18.0001V7.49966ZM9.9995 7.49966C9.9995 6.6709 10.6726 5.99966 11.4995 5.99966C12.3283 5.99966 12.9995 6.6709 12.9995 7.49966V8.0003H9.9995V7.49966ZM5.00078 11.0003C5.00078 10.4472 5.44891 10.0009 6.00014 9.99907H8.00078V10.4997C8.00266 12.4309 9.56827 13.9966 11.4996 14.0004H12.0002C12.5533 14.0004 12.9996 13.5522 12.9996 12.9991C12.9996 12.4479 12.5533 11.9998 12.0002 11.9998H11.4996C10.6727 11.9998 10.0014 11.3285 9.99955 10.4998V9.99912H15.9996V10.4998C16.0033 12.431 17.5689 13.9967 19.5002 14.0004H20.0008C20.5521 14.0004 21.0002 13.5523 21.0002 12.9992C21.0002 12.4479 20.5521 11.9998 20.0008 11.9998H19.5002C18.6714 11.9998 18.0002 11.3286 18.0002 10.4998V9.99917H24.9996V10.4998C25.0033 12.431 26.5689 13.9967 28.5002 14.0004H29.0008C29.5521 14.0004 30.0002 13.5523 30.0002 12.9992C30.0002 12.448 29.5521 11.9999 29.0008 11.9999H28.5002C27.6714 11.9999 27.0002 11.3286 27.0002 10.4999V9.99922H33.0002V10.4999C33.0021 12.4311 34.5677 13.9968 36.5008 14.0005H36.9996C37.5527 14.0005 38.0008 13.5524 38.0008 12.9993C38.0008 12.448 37.5527 11.9999 36.9996 11.9999H36.499H36.5008C35.6721 11.9999 35.0008 11.3287 35.0008 10.4999V9.99926H42.0002C42.5514 10.0011 42.9996 10.4474 42.9996 11.0005V16.0011L5.00084 15.9993L5.00078 11.0003Z" fill="white"/>
</svg>
