<svg width="32" height="32" viewBox="0 0 32 32" fill="none" xmlns="http://www.w3.org/2000/svg">
<path d="M20.3102 16.5051C19.6452 16.4901 19.6452 15.5051 20.3102 15.4901C20.9752 15.5051 20.9752 16.4901 20.3102 16.5051ZM16.0001 20.8152C16.6651 20.8002 16.6651 19.8152 16.0001 19.8002C15.3351 19.8152 15.3351 20.8002 16.0001 20.8152ZM16.3101 24.6401L16.0001 24.8851C14.7701 23.9751 13.6851 22.8402 12.9801 21.6103C12.3251 24.5653 13.4901 27.3754 16.0001 29.4803C18.5701 27.3403 19.6702 24.4304 19.0251 21.6055C18.3651 22.7305 17.4451 23.7655 16.3051 24.6405L16.3101 24.6401ZM13.4301 20.2501C13.9651 21.4951 14.8301 22.6201 16.0001 23.5902C17.1701 22.6152 18.0401 21.4952 18.5751 20.2552C18.0951 19.1452 17.4001 18.2052 16.5051 17.3552V18.8802C18.0901 19.4552 17.7001 21.8102 16.0001 21.8302C14.2951 21.8102 13.9051 19.4552 15.4951 18.8802V17.3552C14.6101 18.2002 13.8951 19.165 13.4301 20.2501ZM21.6051 12.9752C22.8352 13.6802 23.9701 14.7702 24.8851 16.0002C23.9751 17.2302 22.8401 18.3152 21.6103 19.0202C24.5653 19.6752 27.3754 18.5102 29.4803 16.0002C27.3403 13.4302 24.4301 12.3301 21.6051 12.9752ZM23.5901 16.0002C22.6151 14.8302 21.4951 13.9602 20.2551 13.4252C19.1451 13.9052 18.2051 14.6002 17.3551 15.4952H18.8801C19.4551 13.9102 21.8101 14.3002 21.8301 16.0002C21.8101 17.7052 19.4551 18.0952 18.8801 16.5052H17.3551C18.2001 17.3902 19.1651 18.1052 20.2501 18.5702C21.4951 18.0352 22.62 17.1702 23.5901 16.0002ZM11.185 16.0002C11.2 16.6652 12.185 16.6652 12.2 16.0002C12.185 15.3352 11.2 15.3352 11.185 16.0002ZM14.6449 16.5052H13.1199C12.5449 18.0902 10.1899 17.7002 10.1698 16.0002C10.1898 14.2952 12.5449 13.9052 13.1199 15.4952H14.6449C13.7999 14.6102 12.8349 13.8952 11.7498 13.4302C10.5048 13.9652 9.37986 14.8302 8.40968 16.0002C9.38469 17.1702 10.5047 18.0402 11.7447 18.5752C12.8547 18.0952 13.7948 17.4002 14.6449 16.5052ZM7.35973 16.3102L7.11473 16.0002C8.02475 14.7702 9.15972 13.6852 10.3896 12.9802C7.4346 12.3252 4.62449 13.4902 2.51953 16.0002C4.65953 18.5702 7.56945 19.6702 10.3944 19.0252C9.26942 18.3652 8.23441 17.4452 7.3594 16.3052L7.35973 16.3102ZM15.9997 12.1953C16.6647 12.1803 16.6647 11.1953 15.9997 11.1803C15.3347 11.1953 15.3347 12.1803 15.9997 12.1953ZM18.5697 11.7503C18.0347 10.5053 17.1697 9.38031 15.9997 8.41014C14.8297 9.38515 13.9597 10.5051 13.4247 11.7452C13.9047 12.8552 14.5997 13.7952 15.4947 14.6452V13.1202C13.9097 12.5452 14.2997 10.1902 15.9997 10.1702C17.7047 10.1902 18.0947 12.5452 16.5047 13.1202V14.6452C17.3897 13.8002 18.1047 12.8403 18.5697 11.7503ZM15.6897 7.36022L15.9997 7.11522C17.2297 8.02524 18.3147 9.16021 19.0197 10.3901C19.6747 7.43509 18.5097 4.62498 15.9997 2.52002C13.4297 4.66002 12.3296 7.56994 12.9747 10.3949C13.6347 9.26991 14.5547 8.2349 15.6947 7.35989L15.6897 7.36022Z" fill="#010403"/>
</svg>
