<svg width="32" height="32" viewBox="0 0 32 32" fill="none" xmlns="http://www.w3.org/2000/svg">
<path d="M28.8636 27.3637C28.8636 27.4512 28.8286 27.5362 28.7661 27.5987C28.7036 27.6612 28.6186 27.6962 28.5298 27.6962H3.46999C3.28624 27.6962 3.13623 27.5475 3.13623 27.3637C3.13623 27.1787 3.28623 27.03 3.46999 27.03H4.75373V24.1037C4.75373 23.9187 4.90248 23.77 5.08625 23.77H7.94375C8.03125 23.77 8.11625 23.805 8.17875 23.8675C8.24125 23.93 8.27625 24.015 8.27625 24.1037V27.03H9.49625V21.6661C9.49625 21.4824 9.64625 21.3336 9.83001 21.3336H12.6838C12.7713 21.3336 12.8563 21.3686 12.9188 21.4311C12.9813 21.4936 13.0163 21.5786 13.0163 21.6661V27.03H14.24V17.3964C14.24 17.2126 14.3888 17.0638 14.5738 17.0638H17.4275H17.4263C17.515 17.0638 17.6 17.0988 17.6625 17.1613C17.725 17.2238 17.76 17.3088 17.76 17.3963V27.0299H19V12.2299C19 12.0462 19.1488 11.8962 19.3338 11.8962H22.1876H22.1863C22.2751 11.8962 22.3601 11.9312 22.4226 11.9937C22.4851 12.0562 22.5201 12.1412 22.5201 12.2299V27.0299H23.7401V7.87985C23.7401 7.6961 23.8888 7.5461 24.0738 7.5461H26.9301C27.0188 7.5461 27.1038 7.5811 27.1663 7.6436C27.2288 7.70609 27.2638 7.7911 27.2638 7.87985V27.0299H28.5476H28.5463C28.7238 27.0387 28.8636 27.185 28.8636 27.3637ZM4.86358 23.3637C4.95233 23.3637 5.03733 23.3287 5.09983 23.2662L9.96991 18.3536H12.1137C12.2112 18.3536 12.3037 18.3111 12.3662 18.2361L19.1838 10.3737L21.16 9.44372C21.1963 9.42372 21.23 9.39872 21.26 9.36997L24.5938 5.86373V6.70373C24.5938 6.88748 24.7425 7.03624 24.9263 7.03624C25.1113 7.03624 25.26 6.88749 25.26 6.70373V5.05998C25.26 4.97123 25.225 4.88623 25.1625 4.82373C25.1 4.76123 25.015 4.72623 24.9263 4.72623H23.2838C23.0988 4.72623 22.95 4.87623 22.95 5.05999C22.95 5.24375 23.0988 5.39375 23.2838 5.39375H24.1201L20.8202 8.86639L18.8202 9.80015C18.7777 9.82015 18.7402 9.8489 18.7102 9.8839L11.964 17.6865H9.83021C9.74146 17.6865 9.65646 17.7215 9.59396 17.784L4.64036 22.784C4.51161 22.914 4.51161 23.124 4.64036 23.254C4.70536 23.3102 4.79036 23.339 4.87661 23.334L4.86358 23.3637ZM15.166 10.0562C15.166 11.5825 14.5597 13.0462 13.481 14.125C12.4022 15.2038 10.9385 15.81 9.41347 15.81C7.88723 15.81 6.42345 15.2038 5.34467 14.125C4.26588 13.0463 3.65968 11.5825 3.65968 10.0562C3.65968 8.53123 4.26592 7.06749 5.34467 5.9887C6.42342 4.90992 7.88717 4.30371 9.41347 4.30371C10.9385 4.30496 12.401 4.9112 13.4797 5.98995C14.5585 7.0687 15.1647 8.53123 15.166 10.0562ZM11.2498 11.2337C11.2498 10.3575 10.4261 9.64371 9.41356 9.64371C8.76732 9.64371 8.24358 9.22746 8.24358 8.71747C8.24358 8.20749 8.76732 7.79123 9.41356 7.79123V7.78998C9.87981 7.76498 10.3173 8.01873 10.5261 8.43622C10.5961 8.60747 10.7898 8.69122 10.9611 8.62122C11.1323 8.55247 11.2161 8.35747 11.1461 8.18621C10.8898 7.62372 10.3598 7.23245 9.74608 7.1537V6.61994C9.74608 6.43619 9.59734 6.28618 9.41357 6.28618C9.22857 6.28618 9.07981 6.43618 9.07981 6.61994V7.1537C8.26231 7.23245 7.62356 7.8962 7.57607 8.7162C7.57607 9.59245 8.39981 10.31 9.41232 10.31C10.0561 10.31 10.5823 10.7237 10.5823 11.2337C10.5823 11.7437 10.0561 12.1599 9.41232 12.1599H9.41357C8.95108 12.1837 8.51732 11.9362 8.30356 11.5262C8.22981 11.3574 8.03356 11.2787 7.86481 11.3512C7.69606 11.4249 7.6173 11.6212 7.6898 11.7899C7.9548 12.3362 8.47729 12.7124 9.07982 12.7899V13.3337C9.07982 13.5174 9.22857 13.6662 9.41358 13.6662C9.59733 13.6662 9.74609 13.5174 9.74609 13.3337V12.7999C10.5661 12.7199 11.2048 12.055 11.2498 11.2337Z" fill="#010403"/>
</svg>
