<svg width="32" height="32" viewBox="0 0 32 32" fill="none" xmlns="http://www.w3.org/2000/svg">
<path d="M29.4038 25.364H27.3138V24.0303C27.3151 23.5453 27.0913 23.0865 26.7063 22.7903L26.3338 22.5065C25.9601 22.219 25.8713 21.6915 26.1301 21.2965L27.0638 19.8565C27.2288 19.6015 27.3151 19.304 27.3138 19.0003V13.7302C27.3138 13.2664 27.1088 12.8252 26.7538 12.5264C26.5513 12.3627 26.4301 12.1202 26.4201 11.8602C26.4176 11.5952 26.5288 11.3427 26.7263 11.1664L26.7701 11.1302C27.1101 10.8302 27.3038 10.4002 27.3038 9.94645V6.30389C27.3013 4.7814 26.0688 3.54888 24.5463 3.54639H5.01993C3.49868 3.54889 2.26492 4.7814 2.26367 6.30389C2.26367 6.39139 2.29867 6.47639 2.36117 6.53889C2.42367 6.60139 2.50867 6.63639 2.59617 6.63639H7.20609L7.10985 12.1526V12.1538C7.10985 12.4388 7.18609 12.7188 7.3336 12.9638L8.92985 15.7638C9.09735 16.0525 9.08985 16.4113 8.90985 16.6938L7.50611 18.94C7.35236 19.1875 7.26986 19.475 7.26986 19.7663L7.23611 25.7199C7.22611 27.1724 8.36484 28.3736 9.81611 28.4399H25.6161C26.9724 28.4399 28.0223 28.1836 28.7324 27.6836H28.7336C29.3749 27.2423 29.7511 26.5073 29.7336 25.7298V25.6836C29.7261 25.5061 29.5811 25.3648 29.4036 25.3636L29.4038 25.364ZM2.95645 5.97042C3.12144 4.95915 3.9952 4.21541 5.02019 4.21416H5.12019C5.68269 4.21291 6.22144 4.43791 6.61395 4.8404C6.91645 5.14915 7.11645 5.54415 7.18646 5.97039L2.95645 5.97042ZM14.8601 5.84667C14.9514 5.85167 15.0414 5.82917 15.1201 5.78417C15.4651 5.61042 15.8714 5.61042 16.2164 5.78417C16.2964 5.82917 16.3876 5.85167 16.4801 5.84667C16.5701 5.85167 16.6589 5.82917 16.7364 5.78417C16.9076 5.70042 17.0964 5.66042 17.2864 5.66667C17.4764 5.66417 17.6652 5.70917 17.8339 5.79667C17.9964 5.88167 18.1901 5.88167 18.3539 5.79667C18.6989 5.62292 19.1052 5.62292 19.4501 5.79667C19.5289 5.84292 19.6189 5.86542 19.7101 5.86042C19.8939 5.86042 20.0439 6.00917 20.0439 6.19418C20.0439 6.37793 19.8939 6.52669 19.7101 6.52669C19.5189 6.53169 19.3289 6.48669 19.1601 6.39669C19.0826 6.35294 18.9926 6.33044 18.9039 6.33419C18.8126 6.33044 18.7226 6.35294 18.6439 6.39669C18.4739 6.48669 18.2851 6.53169 18.0939 6.52669C17.9026 6.53169 17.7151 6.48669 17.5464 6.39669C17.3839 6.31294 17.1901 6.31294 17.0264 6.39669C16.6814 6.57044 16.2751 6.57044 15.9301 6.39669C15.7676 6.31294 15.5726 6.31294 15.4101 6.39669C15.2414 6.48669 15.0514 6.53169 14.8601 6.52669C14.6764 6.52669 14.5263 6.37794 14.5263 6.19418C14.5263 6.00918 14.6763 5.86042 14.8601 5.86042L14.8601 5.84667ZM12.4364 8.15041C12.6701 8.15666 12.9001 8.10041 13.1039 7.98666C13.7026 7.69166 14.4051 7.69666 15.0001 8.00041C15.2039 8.11416 15.4339 8.17041 15.6664 8.16416C15.9001 8.17041 16.1301 8.11291 16.3339 8.00041C16.6251 7.84416 16.9526 7.76541 17.2839 7.77416C17.6151 7.76666 17.9439 7.84416 18.2364 8.00041C18.6539 8.22041 19.1526 8.22041 19.5701 8.00041C19.8614 7.84416 20.1889 7.76541 20.5202 7.77416C20.8527 7.76666 21.1802 7.84416 21.4739 8.00041C21.6764 8.11416 21.9077 8.17041 22.1402 8.16416C22.3239 8.16416 22.4739 8.31291 22.4739 8.49668C22.4739 8.68167 22.3239 8.83043 22.1402 8.83043C21.8089 8.83668 21.4802 8.75794 21.1864 8.60419C20.9839 8.48918 20.7526 8.43293 20.5202 8.44043C20.2877 8.43419 20.0577 8.49044 19.8539 8.60419C19.5614 8.75919 19.2339 8.83668 18.9039 8.83043C18.5714 8.83668 18.2439 8.75794 17.9501 8.60419C17.5326 8.38419 17.0339 8.38419 16.6164 8.60419C16.0189 8.90668 15.3114 8.90668 14.7139 8.60419C14.5101 8.49044 14.2801 8.43419 14.0464 8.44043C13.8139 8.43419 13.5839 8.49044 13.3802 8.60419C13.0864 8.75794 12.7589 8.83668 12.4264 8.83043C12.2426 8.83043 12.0939 8.68169 12.0939 8.49668C12.0939 8.31292 12.2426 8.16416 12.4264 8.16416L12.4364 8.15041ZM12.4364 10.3542C12.6701 10.3604 12.9001 10.3042 13.1039 10.1904C13.7026 9.88791 14.4101 9.88791 15.0101 10.1904C15.2139 10.3042 15.4439 10.3604 15.6764 10.3542C15.9101 10.3604 16.1401 10.3029 16.3438 10.1904C16.6351 10.0342 16.9626 9.9554 17.2939 9.96416C17.6251 9.95666 17.9539 10.0342 18.2464 10.1904C18.6639 10.4104 19.1626 10.4104 19.5801 10.1904C19.8714 10.0342 20.1989 9.9554 20.5301 9.96416C20.8627 9.95666 21.1901 10.0342 21.4839 10.1904C21.6864 10.3042 21.9177 10.3604 22.1501 10.3542C22.3339 10.3542 22.4839 10.5029 22.4839 10.6867C22.4839 10.8717 22.3339 11.0204 22.1501 11.0204C21.8176 11.0279 21.4901 10.9492 21.1964 10.7942C20.9939 10.6792 20.7626 10.6229 20.5301 10.6304C20.2976 10.6242 20.0676 10.6804 19.8639 10.7942C19.5714 10.9504 19.2439 11.0279 18.9139 11.0204C18.5814 11.0279 18.2526 10.9492 17.9601 10.7942C17.5426 10.5742 17.0439 10.5742 16.6264 10.7942C16.0276 11.0967 15.3201 11.0967 14.7201 10.7942C14.3026 10.5742 13.8039 10.5742 13.3864 10.7942C13.0939 10.9492 12.7651 11.0279 12.4339 11.0204C12.2489 11.0204 12.1001 10.8717 12.1001 10.6867C12.1001 10.5029 12.2488 10.3542 12.4339 10.3542H12.4364ZM12.4364 12.5579V12.5567C12.6701 12.5642 12.9001 12.5079 13.1039 12.3942C13.7026 12.0917 14.4101 12.0917 15.0101 12.3942C15.2139 12.5079 15.4439 12.5642 15.6764 12.5567C15.9101 12.5629 16.1401 12.5067 16.3438 12.3942C16.6351 12.2392 16.9626 12.1604 17.2939 12.1667C17.6251 12.1617 17.9526 12.2392 18.2464 12.3942C18.6639 12.6142 19.1626 12.6142 19.5801 12.3942C19.8726 12.2392 20.1989 12.1604 20.5301 12.1667C20.8614 12.1617 21.1901 12.2392 21.4839 12.3942C21.6864 12.5079 21.9177 12.5642 22.1501 12.5567C22.3339 12.5567 22.4839 12.7067 22.4839 12.8904C22.4839 13.0742 22.3339 13.2242 22.1501 13.2242C21.8126 13.2354 21.4789 13.1579 21.1802 13.0004C20.9764 12.8867 20.7464 12.8304 20.5139 12.8367C20.2802 12.8304 20.0502 12.8867 19.8464 13.0004C19.5552 13.1567 19.2277 13.2354 18.8964 13.2267C18.5677 13.2329 18.2414 13.1554 17.9502 13.0004C17.5327 12.7804 17.0339 12.7804 16.6164 13.0004C16.0189 13.3029 15.3114 13.3029 14.7139 13.0004C14.5102 12.8879 14.2802 12.8304 14.0464 12.8367C13.8139 12.8304 13.5839 12.8867 13.3802 13.0004C13.0877 13.1567 12.7589 13.2342 12.4264 13.2267C12.2427 13.2267 12.0939 13.0779 12.0939 12.8942C12.0939 12.7092 12.2427 12.5604 12.4264 12.5604L12.4364 12.5579ZM12.4364 14.7604C12.6689 14.7679 12.9001 14.7129 13.1039 14.6004C13.7026 14.2979 14.4101 14.2979 15.0101 14.6004C15.2139 14.7129 15.4439 14.7679 15.6764 14.7604C15.9089 14.7679 16.1388 14.7116 16.3438 14.6004C16.6351 14.4441 16.9626 14.3654 17.2939 14.3741C17.6251 14.3666 17.9539 14.4441 18.2464 14.6004C18.6651 14.8154 19.1614 14.8154 19.5801 14.6004C19.8714 14.4441 20.1989 14.3654 20.5301 14.3741C20.8627 14.3666 21.1901 14.4441 21.4839 14.6004C21.6877 14.7129 21.9177 14.7679 22.1501 14.7604C22.3339 14.7604 22.4839 14.9091 22.4839 15.0942C22.4839 15.2779 22.3339 15.4267 22.1501 15.4267C21.8176 15.4342 21.4901 15.3567 21.1964 15.2004C20.9926 15.0879 20.7626 15.0329 20.5301 15.0404C20.2976 15.0329 20.0676 15.0892 19.8639 15.2004C19.5714 15.3567 19.2439 15.4354 18.9139 15.4267C18.5814 15.4342 18.2526 15.3567 17.9601 15.2004C17.5414 14.9854 17.0451 14.9854 16.6264 15.2004C16.0289 15.5029 15.3214 15.5029 14.7239 15.2004C14.5189 15.0892 14.2889 15.0329 14.0564 15.0404C13.8239 15.0329 13.5939 15.0879 13.3901 15.2004C13.0976 15.3567 12.7689 15.4342 12.4364 15.4267C12.2526 15.4267 12.1039 15.2779 12.1039 15.0942C12.1039 14.9092 12.2526 14.7604 12.4364 14.7604ZM12.4364 16.9654V16.9641C12.6689 16.9716 12.9001 16.9166 13.1039 16.8041C13.7026 16.5016 14.4101 16.5016 15.0101 16.8041C15.2139 16.9166 15.4439 16.9716 15.6764 16.9641C15.9089 16.9704 16.1388 16.9154 16.3438 16.8041C16.6351 16.6466 16.9626 16.5691 17.2939 16.5766C17.6251 16.5691 17.9539 16.6479 18.2464 16.8041C18.6651 17.0191 19.1614 17.0191 19.5801 16.8041C19.8714 16.6466 20.1989 16.5691 20.5301 16.5766C20.8627 16.5691 21.1901 16.6479 21.4839 16.8041C21.6877 16.9166 21.9177 16.9716 22.1501 16.9641C22.3339 16.9641 22.4839 17.1129 22.4839 17.2967C22.4839 17.4816 22.3339 17.6304 22.1501 17.6304C21.8176 17.6379 21.4901 17.5592 21.1964 17.4042C20.9926 17.2904 20.7626 17.2354 20.5301 17.2442C20.2976 17.2367 20.0676 17.2917 19.8639 17.4042C19.5714 17.5604 19.2439 17.6379 18.9139 17.6304C18.5814 17.6379 18.2526 17.5592 17.9601 17.4042C17.5414 17.1879 17.0451 17.1879 16.6264 17.4042C16.0276 17.7067 15.3201 17.7067 14.7201 17.4042C14.3014 17.1879 13.8051 17.1879 13.3864 17.4042C13.0939 17.5592 12.7651 17.6379 12.4339 17.6304C12.2489 17.6304 12.1001 17.4817 12.1001 17.2967C12.1001 17.1129 12.2488 16.9641 12.4339 16.9641L12.4364 16.9654ZM12.4364 19.1691V19.1666C12.6689 19.1741 12.9001 19.1191 13.1039 19.0066C13.6989 18.7054 14.4026 18.7029 15.0001 19.0004C15.2039 19.1129 15.4339 19.1679 15.6664 19.1604C15.8989 19.1679 16.1289 19.1116 16.3339 19.0004C16.6251 18.8441 16.9526 18.7654 17.2839 18.7741C17.6151 18.7666 17.9439 18.8441 18.2364 19.0004C18.6551 19.2154 19.1514 19.2154 19.5701 19.0004C19.8614 18.8441 20.1889 18.7654 20.5202 18.7741C20.8527 18.7666 21.1802 18.8441 21.4739 19.0004C21.6777 19.1129 21.9077 19.1679 22.1402 19.1604C22.3239 19.1604 22.4739 19.3091 22.4739 19.4941C22.4739 19.6779 22.3239 19.8267 22.1402 19.8267C21.8076 19.8342 21.4802 19.7567 21.1864 19.6004C20.9827 19.4879 20.7526 19.4329 20.5202 19.4404C20.2877 19.4329 20.0577 19.4892 19.8539 19.6004C19.5614 19.7567 19.2339 19.8354 18.9039 19.8267C18.5714 19.8342 18.2427 19.7567 17.9501 19.6004C17.5314 19.3854 17.0351 19.3854 16.6164 19.6004C16.0189 19.9029 15.3114 19.9029 14.7139 19.6004C14.5089 19.4892 14.2789 19.4329 14.0464 19.4404C13.8139 19.4329 13.5839 19.4879 13.3802 19.6004C13.0877 19.7567 12.7589 19.8342 12.4264 19.8267C12.2426 19.8267 12.0939 19.6779 12.0939 19.4941C12.0939 19.3091 12.2426 19.1604 12.4264 19.1604L12.4364 19.1691ZM12.4364 21.3729V21.3704C12.6689 21.3779 12.9001 21.3229 13.1039 21.2104C13.7026 20.9079 14.4101 20.9079 15.0101 21.2104C15.2139 21.3229 15.4439 21.3779 15.6764 21.3704C15.9089 21.3779 16.1388 21.3216 16.3438 21.2104C16.6351 21.0604 16.9601 20.9879 17.2863 21.0004C17.6188 20.9929 17.9476 21.0716 18.2401 21.2266C18.6588 21.4429 19.1551 21.4429 19.5739 21.2266C19.8626 21.0716 20.1876 20.9929 20.5164 21.0004C20.8489 20.9929 21.1776 21.0716 21.4701 21.2266C21.6739 21.3404 21.9039 21.3954 22.1364 21.3866C22.3214 21.3866 22.4701 21.5366 22.4701 21.7204C22.4701 21.9041 22.3214 22.0541 22.1364 22.0541C21.8051 22.0616 21.4764 21.9829 21.1838 21.8266C20.9801 21.7141 20.7488 21.6591 20.5164 21.6666C20.2839 21.6604 20.0539 21.7154 19.8501 21.8266C19.5589 21.9841 19.2314 22.0616 18.9001 22.0541C18.5676 22.0616 18.2401 21.9829 17.9463 21.8266C17.5288 21.6116 17.0313 21.6116 16.6138 21.8266C16.0138 22.1291 15.3063 22.1291 14.7063 21.8266C14.2888 21.6116 13.7913 21.6116 13.3738 21.8266C13.0801 21.9829 12.7526 22.0616 12.4201 22.0541C12.2363 22.0541 12.0863 21.9041 12.0863 21.7204C12.0863 21.5366 12.2363 21.3866 12.4201 21.3866L12.4364 21.3729ZM12.4364 23.5766V23.5741C12.6689 23.5816 12.9001 23.5266 13.1039 23.4141C13.7026 23.1116 14.4101 23.1116 15.0101 23.4141C15.2139 23.5266 15.4439 23.5816 15.6764 23.5741C15.9089 23.5804 16.1388 23.5254 16.3438 23.4141C16.6351 23.2566 16.9626 23.1791 17.2939 23.1866C17.6251 23.1791 17.9539 23.2579 18.2464 23.4141C18.6651 23.6291 19.1614 23.6291 19.5801 23.4141C19.8714 23.2566 20.1989 23.1791 20.5301 23.1866C20.8627 23.1791 21.1901 23.2579 21.4839 23.4141C21.6877 23.5266 21.9177 23.5816 22.1501 23.5741C22.3339 23.5741 22.4839 23.7229 22.4839 23.9066C22.4839 24.0916 22.3339 24.2404 22.1501 24.2404C21.8114 24.2466 21.4764 24.1641 21.1802 24.0004C20.9764 23.8879 20.7464 23.8329 20.5139 23.8404C20.2814 23.8329 20.0514 23.8891 19.8464 24.0004C19.5552 24.1566 19.2277 24.2354 18.8964 24.2266C18.5677 24.2329 18.2414 24.1554 17.9502 24.0004C17.5314 23.7854 17.0352 23.7854 16.6164 24.0004C16.0189 24.3029 15.3114 24.3029 14.7139 24.0004C14.5089 23.8891 14.2789 23.8329 14.0464 23.8404C13.8139 23.8329 13.5839 23.8879 13.3802 24.0004C13.0877 24.1566 12.7589 24.2341 12.4264 24.2266C12.2427 24.2266 12.0939 24.0779 12.0939 23.8941C12.0939 23.7091 12.2427 23.5604 12.4264 23.5604L12.4364 23.5766ZM28.334 27.1542C27.7402 27.5742 26.8202 27.788 25.604 27.788H11.7077L11.7064 27.7867C12.2214 27.3392 12.5489 26.7142 12.6239 26.0367H29.0502C28.9814 26.4942 28.7203 26.9005 28.334 27.1542Z" fill="#010403"/>
</svg>
