<svg width="24" height="24" viewBox="0 0 24 24" fill="none" xmlns="http://www.w3.org/2000/svg">
<path d="M11.7571 10.321H12.7068C12.8259 10.321 12.8962 10.187 12.8278 10.0895L11.6568 8.40853L10.7821 7.15228L6.32342 6.63289C6.25123 6.62445 6.18186 6.64602 6.12842 6.69477C6.07405 6.74258 6.04498 6.80914 6.04498 6.88133V8.78446C6.04498 8.80227 6.05436 8.81446 6.05998 8.82008C6.06561 8.82571 6.07405 8.83696 6.09561 8.83414L9.72657 8.81821H9.72751C9.79219 8.81821 9.84938 8.85945 9.87001 8.92039L10.3125 10.2207C10.3331 10.2807 10.3894 10.321 10.4522 10.321L11.7571 10.321Z" fill="#BBE3D3"/>
<path d="M5.36523 5.74509C5.34929 5.68603 5.29492 5.64478 5.23398 5.64478C5.15898 5.64478 5.09711 5.70571 5.09711 5.78165V7.55071C5.09711 7.62571 5.15805 7.68759 5.23398 7.68759H5.58273C5.67273 7.68759 5.74491 7.61446 5.74491 7.5254V7.10727L5.36523 5.74509Z" fill="#BBE3D3"/>
<path d="M11.13 6.96099C11.0916 6.99943 11.086 7.06036 11.1169 7.10536L11.7788 8.05598L12.4032 7.10723C12.4322 7.06223 12.4266 7.00317 12.3891 6.96473L12.3854 6.96098C12.2513 6.82692 12.1754 6.64505 12.1754 6.45473V6.32442C12.1754 6.28879 12.1425 6.26254 12.1069 6.2691C12.0375 6.28223 11.9654 6.28973 11.8922 6.28973H11.6222C11.5491 6.28973 11.4769 6.28223 11.4075 6.2691C11.3719 6.26254 11.3391 6.28785 11.3391 6.32442V6.45473C11.3391 6.64504 11.2641 6.82692 11.13 6.96099Z" fill="#BBE3D3"/>
<path d="M13.1269 10.7524C13.1269 10.6802 13.0687 10.6221 12.9965 10.6221H10.5178C10.4456 10.6221 10.3875 10.6802 10.3875 10.7524V11.0458C10.3875 11.118 10.4456 11.1761 10.5178 11.1761H12.9965C13.0687 11.1761 13.1269 11.118 13.1269 11.0458V10.7524Z" fill="#BBE3D3"/>
<path d="M10.4165 19.9949C10.0415 19.9949 9.73682 20.2996 9.73682 20.6746C9.73682 20.7252 9.77807 20.7664 9.82869 20.7664H11.5143C11.5649 20.7664 11.6062 20.7252 11.6062 20.6746C11.6062 20.2996 11.3015 19.9949 10.9265 19.9949H10.4165Z" fill="#BBE3D3"/>
<path d="M11.1226 3.64685C11.3372 3.94498 11.7422 4.07059 12.1051 3.90559C12.2391 3.84465 12.3507 3.74247 12.4369 3.6234L12.5054 3.52778C12.5279 3.4959 12.5232 3.44996 12.4913 3.42652C12.3282 3.30559 12.1266 3.2334 11.9082 3.2334H11.6063C11.3963 3.2334 11.2013 3.29996 11.0419 3.41246C11.0091 3.4359 11.0035 3.48183 11.0269 3.51465L11.1226 3.64685Z" fill="#BBE3D3"/>
<path d="M11.9081 5.98974C12.45 5.98974 12.8887 5.55099 12.8887 5.00912L12.8897 4.21412C12.8897 4.07631 12.8606 3.94412 12.809 3.82506C12.7922 3.78568 12.7387 3.77912 12.7144 3.81381C12.6047 3.96662 12.4659 4.09974 12.299 4.186C11.7703 4.45693 11.1656 4.28069 10.8506 3.84287C10.8506 3.84287 10.755 3.71818 10.7109 3.81474C10.6612 3.92537 10.6265 4.07819 10.6265 4.21319V5.00819C10.6265 5.55006 11.0653 5.98881 11.6071 5.98881L11.9081 5.98974Z" fill="#BBE3D3"/>
<path d="M12.9084 14.0645L13.9688 14.3026C14.2856 14.3739 14.5106 14.6542 14.5106 14.9785V15.7192C14.5106 16.0126 14.7478 16.2498 15.0412 16.2498H15.6187C15.9122 16.2498 16.1494 16.0126 16.1494 15.7192V14.0664C16.1494 13.6004 15.8887 13.1748 15.4734 12.9629L14.6709 12.5532L14.4825 12.5757C14.2097 12.6085 13.9556 12.736 13.7662 12.9357C13.7662 12.9357 13.1297 13.607 12.8559 13.8957C12.8025 13.9529 12.8316 14.0476 12.9084 14.0645Z" fill="#BBE3D3"/>
<path d="M18.7668 6.69556C18.7059 6.69556 18.6515 6.73681 18.6356 6.79587L18.2559 8.15713V8.57525C18.2559 8.66525 18.329 8.73744 18.4181 8.73744H18.7669C18.8428 8.73744 18.9037 8.6765 18.9037 8.60057V6.8315C18.9028 6.75744 18.8418 6.69556 18.7668 6.69556Z" fill="#BBE3D3"/>
<path d="M17.9542 8.09721C17.9542 7.97252 17.8614 7.86659 17.7376 7.84972L12.7202 7.17285L11.9636 8.32317L13.0633 9.90285C13.1327 10.0022 13.2846 9.98067 13.3239 9.86629L13.6455 8.92129C13.6717 8.84442 13.7552 8.80223 13.832 8.82566L17.8895 10.0782C17.9101 10.0847 17.926 10.0763 17.9335 10.0707C17.941 10.0651 17.9542 10.0529 17.9542 10.0304L17.9542 8.09721Z" fill="#BBE3D3"/>
<path d="M9.89453 14.7964V19.0864C9.89453 19.422 10.1664 19.6939 10.502 19.6939H10.9051C11.2248 19.6939 11.492 19.4436 11.5117 19.1239L11.7892 14.8498C11.7957 14.7476 11.6992 14.6716 11.6007 14.6998C11.3776 14.7635 11.1442 14.7963 10.9089 14.7963L9.89453 14.7964Z" fill="#BBE3D3"/>
<path d="M10.3003 11.5529L9.08348 14.281C8.99066 14.4882 9.02629 14.7301 9.17348 14.9035L9.45096 15.2279C9.49971 15.2851 9.5944 15.2504 9.5944 15.1754V14.7948C9.51472 14.7873 9.45284 14.7179 9.45846 14.6345C9.46409 14.5539 9.53909 14.4948 9.61972 14.4948H10.9097C11.5266 14.4948 12.1172 14.2407 12.5419 13.7926L13.5497 12.7285C13.7035 12.5654 13.8928 12.4407 14.1 12.362C14.1882 12.3282 14.2041 12.211 14.1282 12.1548L13.2628 11.5013C13.2403 11.4845 13.2132 11.4751 13.1841 11.4751H10.4203C10.3678 11.476 10.3219 11.5061 10.3003 11.5529Z" fill="#BBE3D3"/>
<path d="M15.0413 16.5506C14.9888 16.5506 14.9382 16.5459 14.8894 16.5366C14.8294 16.5253 14.7666 16.5506 14.7347 16.6031C14.64 16.7606 14.611 16.9537 14.6635 17.1337L14.8782 17.88C14.9138 18.0037 15.0019 18.1097 15.1228 18.1537C15.3478 18.2353 15.5794 18.105 15.6403 17.8931L15.8588 17.1337C15.9085 16.9603 15.885 16.7766 15.7997 16.6228C15.7725 16.5741 15.7191 16.545 15.6628 16.5487C15.6478 16.5497 15.6338 16.5506 15.6188 16.5506L15.0413 16.5506Z" fill="#BBE3D3"/>
</svg>
