<svg width="24" height="24" viewBox="0 0 24 24" fill="none" xmlns="http://www.w3.org/2000/svg">
<path fill-rule="evenodd" clip-rule="evenodd" d="M12.8578 13.9538L15.2137 17.76H19.8318L14.128 12.7678L12.8578 13.9538ZM5.49098 11.8895L6.83066 9.85413L10.9613 11.9963L14.5294 17.7611L1.6265 17.7593L5.17034 12.376L6.5344 13.1879L5.7994 14.0467C5.68127 14.1845 5.71784 14.3954 5.87346 14.4873V14.4882L9.43122 16.5685C9.76309 16.7626 10.0575 16.2582 9.72561 16.0642L6.46881 14.1601L7.19349 13.3126C7.32286 13.1682 7.28536 12.9563 7.1288 12.8635L5.49098 11.8895ZM14.461 9.18657L15.0657 8.68219L22.3725 17.758H20.715L14.3137 12.1564C14.2003 12.0571 14.0315 12.0617 13.9237 12.1621L12.5456 13.4483L11.4206 11.6314C11.3934 11.5827 11.3521 11.5414 11.2996 11.5142L8.96807 10.3049L11.7329 6.23975L13.8816 8.91263L12.9507 9.68795C12.6572 9.93169 13.0294 10.3789 13.3229 10.1351L14.461 9.18657Z" fill="#BBE3D3"/>
</svg>
