<svg width="56" height="57" viewBox="0 0 56 57" fill="none" xmlns="http://www.w3.org/2000/svg">
<g clip-path="url(#clip0_33_370)">
<path d="M53.4687 27.0255C53.9718 26.5355 54.2496 25.8749 54.2496 25.1662V23.4162H55.1246C55.608 23.4162 55.9996 23.0246 55.9996 22.5412V18.1662C55.9996 17.8621 55.8421 17.5799 55.5818 17.4202L28.4565 0.794962C28.1765 0.624336 27.8221 0.624336 27.5421 0.794962L0.416834 17.4202C0.156523 17.5799 -0.000976562 17.8621 -0.000976562 18.1662V22.5412C-0.000976562 23.0246 0.390587 23.4162 0.874024 23.4162H1.74902V25.1662C1.74902 25.8749 2.02683 26.5355 2.51466 27.0102C2.79466 27.2968 3.13155 27.5002 3.49902 27.6315V45.4529C2.48184 45.8161 1.74902 46.7786 1.74902 47.916V49.666H0.874024C0.390587 49.666 -0.000976562 50.0576 -0.000976562 50.541V55.791C-0.000976562 56.2745 0.390587 56.666 0.874024 56.666H55.124C55.6075 56.666 55.999 56.2745 55.999 55.791V50.541C55.999 50.0576 55.6075 49.666 55.124 49.666H54.249V47.916C54.249 46.7763 53.514 45.8139 52.499 45.4529V27.6337C52.8643 27.5047 53.199 27.3056 53.4681 27.0278L53.4687 27.0255ZM27.9999 2.56697L52.0227 17.2911H46.624L28.461 6.04737C28.1788 5.87237 27.8222 5.87237 27.54 6.04737L9.377 17.2911H3.97826L27.9999 2.56697ZM30.6249 12.9158C30.6249 13.3992 30.2333 13.7908 29.7499 13.7908H26.2499C25.7664 13.7908 25.3749 13.3992 25.3749 12.9158C25.3749 12.4323 25.7664 12.0408 26.2499 12.0408H29.7499C30.2333 12.0408 30.6249 12.4323 30.6249 12.9158ZM1.75013 21.6658V19.0408H54.2501V21.6658H1.75013ZM51.6249 47.0405C52.1061 47.0405 52.4999 47.4342 52.4999 47.9155V49.6655H45.4999V47.9155C45.4999 47.6814 45.5895 47.4671 45.7667 47.292C45.9242 47.1302 46.1408 47.0405 46.3748 47.0405L51.6249 47.0405ZM47.2499 45.2905V27.7905H50.7499V45.2905H47.2499ZM23.7343 46.0714C23.4543 45.7848 23.1174 45.5814 22.75 45.4501V38.2905H27.125V49.6653H24.5V47.9153C24.5 47.2065 24.2222 46.5461 23.7343 46.0714ZM21.875 47.0405C22.109 47.0405 22.3234 47.1302 22.4984 47.3074C22.6603 47.4649 22.75 47.6814 22.75 47.9155V49.6655H15.75V47.9155C15.75 47.4342 16.1437 47.0405 16.625 47.0405L21.875 47.0405ZM17.5 45.2905V27.7905H21V45.2905H17.5ZM21.875 26.0405H16.625C16.3909 26.0405 16.1765 25.9508 16.0015 25.7736C15.8396 25.6161 15.75 25.3996 15.75 25.1655V23.4155H22.75V25.1655C22.75 25.6468 22.3562 26.0405 21.875 26.0405ZM22.75 36.5405V33.9155H33.25V36.5405H22.75ZM28.8752 38.2905H33.2502V45.4479C32.8849 45.5769 32.5502 45.776 32.2812 46.0538C31.778 46.5438 31.5002 47.2044 31.5002 47.9131V49.6631H28.8752V38.2884V38.2905ZM33.2502 47.9158C33.2502 47.6817 33.3399 47.4673 33.5171 47.2923C33.6746 47.1304 33.8912 47.0408 34.1252 47.0408H39.3752C39.8565 47.0408 40.2502 47.4345 40.2502 47.9158V49.6658H33.2502L33.2502 47.9158ZM35.0002 45.2908V27.7908H38.5002V45.2908H35.0002ZM39.9834 25.7893C39.8259 25.9512 39.6093 26.0409 39.3752 26.0409H34.1252C33.644 26.0409 33.2502 25.6471 33.2502 25.1659V23.4159H40.2502V25.1659C40.2502 25.4 40.1605 25.6143 39.9834 25.7893ZM4.37519 26.0409C4.14113 26.0409 3.92675 25.9512 3.75174 25.774C3.58987 25.6165 3.50018 25.4 3.50018 25.1659V23.4159H10.5002V25.1659C10.5002 25.6472 10.1064 26.0409 9.62518 26.0409L4.37519 26.0409ZM8.75019 27.7909V45.2909H5.25019V27.7909H8.75019ZM3.50019 47.9162C3.50019 47.4349 3.89394 47.0412 4.37519 47.0412H9.62519C9.85925 47.0412 10.0736 47.1309 10.2486 47.308C10.4105 47.4655 10.5002 47.6821 10.5002 47.9162V49.6662H3.5002L3.50019 47.9162ZM54.2502 51.4162V54.9162H1.75019V51.4162H54.2502ZM52.2333 25.7895C52.0758 25.9513 51.8592 26.041 51.6252 26.041H46.3752C45.8939 26.041 45.5002 25.6473 45.5002 25.166V23.416H52.5002V25.166C52.5002 25.4001 52.4105 25.6144 52.2333 25.7895Z" fill="black"/>
</g>
<defs>
<clipPath id="clip0_33_370">
<rect width="56" height="56" fill="white" transform="translate(0 0.666504)"/>
</clipPath>
</defs>
</svg>
