<svg width="1139" height="725" viewBox="0 0 1139 725" fill="none" xmlns="http://www.w3.org/2000/svg">
<g opacity="0.32">
<rect width="1136.77" height="722.082" fill="#D9D9D9"/>
<g opacity="0.6">
<path opacity="0.21" d="M548.37 207.001V516.923C471.92 505.141 415.44 439.363 415.44 361.962C415.44 284.561 471.92 218.781 548.37 207.001ZM726.473 361.962C726.103 283.662 668.197 217.564 590.637 207.001V516.923C668.197 506.356 726.108 440.261 726.473 361.962ZM967.497 502.87H1139V221.053H967.497V502.87ZM946.363 545.137C934.687 545.137 925.23 535.68 925.23 524.004V199.92C925.23 188.244 934.687 178.786 946.363 178.786H1138.99V21.1335C1138.99 9.45728 1129.54 0 1117.86 0H590.637V163.888C656.415 170.915 714.426 210.118 745.436 268.552C776.45 326.934 776.45 396.991 745.436 455.366C714.422 513.8 656.411 553.004 590.637 560.03V723.918H1117.86C1129.54 723.918 1138.99 714.461 1138.99 702.785V545.132L946.363 545.137ZM548.363 560.037C482.585 553.01 424.574 513.807 393.564 455.373C362.55 396.991 362.55 326.934 393.564 268.559C424.578 210.125 482.589 170.921 548.363 163.895V0.00675902H21.1403C9.46405 0.00675902 0.00676547 9.46404 0.00676547 21.1403V178.793H192.636C204.313 178.793 213.77 188.25 213.77 199.927V524.01C213.77 535.687 204.313 545.144 192.636 545.144H0.00676547V702.959V702.906C0.00676547 714.583 9.46405 724.04 21.1403 724.04H548.363V560.037ZM171.503 221.062H0V502.878H171.503V221.062Z" fill="black"/>
</g>
</g>
</svg>
