<svg width="32" height="32" viewBox="0 0 32 32" fill="none" xmlns="http://www.w3.org/2000/svg">
<path d="M16 3.25757C8.97379 3.25757 3.25763 8.97373 3.25763 16C3.25763 23.0262 8.97379 28.7424 16 28.7424C23.0263 28.7424 28.7424 23.0262 28.7424 16C28.7424 8.97373 23.0263 3.25757 16 3.25757ZM16 28.0876C9.55747 28.0876 4.27747 23.0214 3.93123 16.664L4.66998 17.0427L5.35872 17.2302L6.44371 17.8352L6.69371 18.149L7.19371 18.399L7.48621 18.5865V18.899L7.27746 19.3377L7.48621 19.734V20.3602L7.75746 20.5902C7.75746 20.5902 8.13247 21.029 8.19621 21.0902C8.25996 21.1527 8.73871 21.529 8.73871 21.529C8.73871 21.529 9.03121 21.759 9.09372 21.8215C9.15621 21.884 9.40621 22.2802 9.42748 22.364C9.44873 22.4477 9.63622 23.1152 9.65748 23.1777C9.67873 23.2402 9.78373 23.4702 9.88748 23.7202C9.99247 23.9702 10.0962 24.284 10.0962 24.3465C10.0962 24.409 10.3262 24.9927 10.3262 24.9927C10.3262 24.9927 10.515 25.4314 10.5762 25.5564C10.6387 25.6814 10.8262 25.9952 10.91 26.1202C10.9937 26.2452 11.1812 26.5377 11.3687 26.6414C11.5562 26.7464 11.8075 26.9339 11.8075 26.9339C11.8075 26.9339 12.0787 27.0389 12.0162 26.9339C11.9537 26.8289 11.8075 26.6002 11.745 26.4539C11.6825 26.3077 11.6625 26.0789 11.6412 26.0152C11.62 25.9527 11.4325 25.5564 11.4325 25.4939C11.4325 25.4314 11.4537 25.3477 11.4537 25.2439C11.4537 25.1389 11.5162 24.9302 11.5575 24.7227C11.6 24.5139 11.62 24.0964 11.7037 24.0339C11.7875 23.9714 11.8925 23.7627 11.8925 23.7002C11.8925 23.6377 12.0575 23.3877 12.0262 23.3039C11.9962 23.2202 11.9187 22.6564 12.03 22.5939C12.1425 22.5314 12.5175 22.2602 12.5813 22.1977C12.6437 22.1352 12.7475 21.6764 12.7475 21.6139C12.7475 21.5514 12.8938 20.8214 12.915 20.7164C12.9363 20.6114 12.915 20.2789 12.915 20.1539C12.915 20.0289 12.7275 19.8827 12.5812 19.7577C12.435 19.6327 12.185 19.5277 12.08 19.5277C11.9762 19.5277 11.2875 19.2777 11.245 19.2139C11.2037 19.1514 11.0575 19.0052 10.995 18.8801C10.9325 18.7551 10.5562 18.4214 10.39 18.4001C10.2238 18.3789 9.80625 18.2326 9.74375 18.1076C9.68125 17.9826 9.66 17.8364 9.5975 17.8364C9.535 17.8364 9.0975 17.8576 9.03376 17.8576C8.97126 17.8576 8.82501 17.8364 8.65875 17.7526C8.49125 17.6689 8.30374 17.5651 8.09501 17.6689C7.88626 17.7739 7.78126 17.8989 7.72 17.9189C7.6575 17.9401 7.39501 17.9401 7.36998 17.9401C7.34496 17.9401 6.69747 17.8776 6.69747 17.8776V17.4601V17.0851C6.69747 17.0851 6.21747 17.0651 6.15497 17.0651C6.09248 17.0651 6.04998 16.8564 6.04998 16.7314C6.04998 16.6064 6.32123 16.4601 6.17497 16.3764C6.02998 16.2926 6.02998 16.1676 5.92497 16.2514C5.81998 16.3351 5.75747 16.4176 5.61122 16.5439C5.46498 16.6689 5.23622 16.7101 5.06873 16.5651C4.90123 16.4189 4.77623 15.9601 4.75498 15.8764C4.73498 15.7926 4.71373 15.5426 4.79623 15.4176C4.87998 15.2926 5.02623 15.1676 5.19249 15.0839C5.35999 15.0001 5.69249 14.9789 5.75623 14.9589C5.81873 14.9389 6.27748 14.7089 6.27748 14.7089L6.69498 14.9801C6.69498 14.9801 6.86123 15.3976 6.94498 15.4801C7.02873 15.5639 7.13373 15.6476 7.15373 15.5851C7.17498 15.5226 7.09123 15.0639 7.09123 15.0014C7.09123 14.9389 7.06998 14.4801 7.13373 14.4376C7.19623 14.3964 7.48874 14.2076 7.55123 14.1664C7.61373 14.1251 7.69748 14.0201 7.71874 13.9164C7.73874 13.8126 7.86373 13.5414 7.92748 13.5201C7.98998 13.4989 7.92748 13.2076 8.19874 13.0614C8.46999 12.9151 8.55374 12.9151 8.59499 12.8114C8.63624 12.7076 8.88749 12.4776 8.88749 12.4776C8.88749 12.4776 9.09624 12.5614 9.22125 12.4776C9.3475 12.3939 9.63875 12.3314 9.78499 12.2689C9.92999 12.2064 10.035 12.2689 9.90999 12.0601C9.78499 11.8514 9.74249 11.7476 9.63874 11.6851C9.53499 11.6226 9.53499 11.4551 9.53499 11.4551C9.53499 11.4551 9.99374 11.5389 10.0775 11.4551C10.1612 11.3714 10.6412 11.0801 10.6 11.1839C10.5575 11.2889 10.2662 11.7476 10.2662 11.7476L10.58 11.9351C10.58 11.9351 10.9137 12.2689 10.9762 12.0601C11.0387 11.8513 11.1225 11.7051 11.0175 11.5601C10.9125 11.4138 10.8712 11.0176 10.8712 10.9551C10.8712 10.8926 10.725 10.4551 10.725 10.4551C10.725 10.4551 10.3912 10.1001 10.4325 9.97511C10.475 9.85011 10.5162 9.66136 10.5162 9.6001V9.26634L9.95249 9.64135L9.91124 9.4951C9.91124 9.4951 9.97374 9.3701 9.97374 9.2651C9.97374 9.1601 9.91124 8.9726 9.80624 8.91009C9.70249 8.84759 9.40998 8.66009 9.40998 8.66009L9.07622 8.99385L8.88872 9.36886C8.88872 9.36886 8.90997 9.57761 8.90997 9.64011C8.90997 9.70261 8.76372 10.0151 8.70122 10.0789C8.63872 10.1414 8.32621 10.5176 8.30496 10.5789C8.28371 10.6414 8.07496 10.8714 8.07496 10.8714C8.07496 10.8714 8.09621 10.6839 8.07496 10.4964C8.05371 10.3089 7.90746 10.1213 7.76121 9.9951C7.61496 9.87011 7.36995 9.43136 7.36995 9.43136C7.36995 9.43136 7.4062 9.0976 7.6362 8.84637C7.86495 8.59637 8.1787 8.32512 8.28244 8.24138C8.38619 8.15763 8.76244 7.82387 8.76244 7.82387C8.76244 7.82387 8.99244 7.63637 8.92994 7.82387C8.86619 8.01137 8.78369 8.36637 8.78369 8.36637C8.78369 8.36637 9.07619 8.32512 9.1387 8.32512C9.20245 8.32512 9.3062 8.13762 9.22245 8.05387C9.1387 7.97011 9.0137 8.05387 9.1387 7.97012C9.26495 7.88636 9.49371 7.72012 9.5562 7.65762C9.6187 7.59512 9.93121 7.01138 9.97371 6.92763C10.015 6.84388 10.14 6.67763 10.2037 6.78138C10.2662 6.88638 10.4537 7.07388 10.4325 7.22013C10.4125 7.36638 10.14 7.82513 10.14 7.82513C10.14 7.82513 9.86996 7.90888 9.82746 7.99138C9.78621 8.07513 9.86996 8.43013 9.86996 8.43013C9.86996 8.43013 10.0987 8.55513 10.225 8.66013C10.35 8.76513 10.5587 8.78638 10.6637 8.64013C10.7675 8.49388 11.1225 8.26512 11.1637 8.20138C11.205 8.13888 11.31 7.70013 11.31 7.70013L11.2262 7.42888L11.2887 7.01137C11.2887 7.01137 11.31 6.49012 11.205 6.61512C11.1 6.74011 11.0175 6.11387 11.0175 6.05137C11.0175 5.98887 11.1837 5.78012 10.9762 5.71761C10.7675 5.65511 10.58 5.61261 10.4962 5.59261C10.4412 5.57886 10.2937 5.51261 10.1125 5.45511C10.8225 5.05636 11.5762 4.72762 12.3637 4.47761C12.2025 4.85761 11.915 5.3001 11.915 5.3001C11.915 5.3001 11.77 5.50885 11.8325 5.5926C11.895 5.67635 11.8637 5.80135 11.8162 5.8426C11.77 5.8851 11.6437 6.05135 11.6437 6.05135C11.6437 6.05135 11.6025 6.23885 11.7275 6.34385C11.8537 6.44885 11.6025 6.69886 12.1238 6.44885C12.645 6.19885 12.6038 6.1776 12.7487 6.03134C12.895 5.88509 13.1662 5.63509 13.27 5.55134C13.375 5.46759 13.7287 5.25009 13.7287 5.25009C13.7287 5.25009 13.8325 5.19634 13.7287 5.36259C13.6237 5.53009 13.4987 5.65509 13.3537 5.7801C13.2075 5.90509 13.2075 5.90509 13.1237 6.0301C13.04 6.1551 12.9562 6.45384 12.9362 6.55509C12.915 6.65634 12.9562 6.80134 13.0187 6.80134C13.0825 6.80134 13.145 6.67634 13.2275 6.80134C13.31 6.92634 13.29 6.80134 13.31 6.92634C13.3312 7.05133 13.3525 6.90509 13.3312 7.30134C13.31 7.6976 13.2475 8.55386 13.2475 8.55386C13.2475 8.55386 13.1225 8.74136 13.0812 8.84511C13.0387 8.95011 12.9762 8.97011 12.9137 9.09511C12.8512 9.22011 12.8712 9.03261 12.8512 9.22011C12.83 9.40885 12.7875 9.59511 12.7875 9.59511V10.1176C12.7875 10.2014 12.955 10.7638 13.0175 10.8263C13.0812 10.8888 13.2262 10.9313 13.2475 10.8263C13.2687 10.7213 13.5487 10.2626 13.5487 10.2626C13.5487 10.2626 13.6737 10.1376 13.7737 10.0326C13.8725 9.9276 14.8125 9.36511 14.9787 9.30262C15.1462 9.24012 15.2925 9.15637 15.375 9.11512C15.4575 9.07387 15.5825 9.07387 15.6875 8.90637C15.7925 8.74012 15.98 8.21763 15.98 8.21763C15.98 8.21763 15.7712 7.90388 15.855 7.80013C15.9387 7.69637 15.8337 7.71638 15.98 7.59138C16.1262 7.46638 16.1887 7.42513 16.2937 7.17388C16.3975 6.92388 16.5225 6.52764 16.5225 6.33887C16.5225 6.15137 16.4812 6.13012 16.6062 5.98386C16.7312 5.8376 16.7525 5.85886 16.8362 5.73386C16.92 5.60886 16.9612 5.46261 16.9612 5.46261C16.9612 5.46261 16.7312 5.17011 16.6687 5.15011C16.6062 5.12886 16.6062 5.08761 16.6275 4.98261C16.6475 4.87761 16.69 4.79511 16.71 4.73261L16.7312 4.67011C16.7312 4.67011 16.8612 4.34262 16.9662 3.95385C19.4387 4.1501 21.7038 5.09385 23.5361 6.5576C23.3824 6.8501 23.2112 7.15884 23.2411 7.2776C23.2836 7.44385 23.3461 7.84134 23.3461 7.84134C23.3461 7.84134 23.2836 8.11259 22.9711 8.02884C22.6586 7.94509 22.4499 7.71634 22.4286 7.63259C22.4074 7.54883 22.3236 7.24257 22.2199 7.13508C22.1149 7.02758 21.9699 6.77758 21.9061 6.94383C21.8436 7.11008 21.8861 7.23633 21.9061 7.46508C21.9274 7.69508 22.1149 8.15381 22.1774 8.15381C22.2399 8.15381 22.6161 8.32006 22.6161 8.32006V8.59132C22.6161 8.59132 22.5736 8.57007 22.4286 8.59132C22.2824 8.61257 21.9437 9.05007 21.8736 8.90507C21.8024 8.75882 21.6986 8.71632 21.6986 8.84257V8.96757C21.6986 8.96757 22.1161 9.59381 21.6986 9.13507C21.2811 8.67632 21.3649 8.78006 21.2811 8.67632C21.1974 8.57132 20.9474 8.65507 20.6974 8.53007C20.4474 8.40507 20.2386 8.25882 20.2386 8.25882C20.2386 8.25882 19.6549 8.30131 19.5299 8.53007C19.4036 8.76007 19.0911 8.94757 18.9974 9.09381C18.9036 9.24006 18.9461 9.32381 18.6736 9.83506C18.4024 10.3463 18.2361 10.4301 18.1099 10.5551C17.9849 10.6813 18.2974 11.3476 18.2974 11.3476L18.7362 11.1601C18.7362 11.1601 18.7574 11.0763 18.8411 11.2013C18.9236 11.3276 19.0487 11.7238 19.2374 11.5976C19.4249 11.4726 19.5299 10.6588 19.5299 10.6588C19.5299 10.6588 19.4037 10.0951 19.5299 9.95009C19.6549 9.80384 19.8849 9.57508 19.9049 9.70009C19.9262 9.82509 19.8849 10.6813 20.0512 10.6813C20.2187 10.6813 20.6974 10.7651 20.6974 10.7651L20.1549 11.1201C20.1549 11.1201 20.0287 11.4813 19.9462 11.6238C19.8624 11.7663 19.4662 11.9126 19.3824 11.9338C19.2987 11.9551 19.0274 11.9338 19.0274 11.9338C19.0274 11.9338 18.8599 12.0776 18.8187 11.9438C18.7762 11.8088 18.6724 11.6001 18.6724 11.6001C18.6724 11.6001 18.5899 11.7663 18.5487 11.8301C18.5062 11.8926 18.2349 12.3301 18.1724 12.4138C18.1099 12.4976 17.9849 12.7063 17.9849 12.7063L17.7349 13.1026C17.7349 13.1026 17.4211 13.1438 17.4011 13.2076C17.3799 13.2701 17.2549 13.5001 17.2549 13.5001C17.2549 13.5001 17.5887 13.3538 17.5887 13.5001C17.5887 13.6463 17.4424 13.8964 17.3587 13.9376C17.2762 13.9789 17.1499 13.7076 16.9211 13.9376C16.6911 14.1676 16.4199 14.5851 16.3574 14.6476C16.2949 14.7101 16.6912 15.1064 16.7749 15.1689L16.8574 15.2314C16.8574 15.2314 17.0037 15.1689 16.8374 15.5026C16.6699 15.8364 16.7324 15.7114 16.6699 15.8364C16.6074 15.9614 16.4199 16.0864 16.3562 16.3164C16.2937 16.5464 16.4812 16.4214 16.2524 16.6301C16.0224 16.8389 15.9812 17.1101 15.8662 17.2351C15.7512 17.3601 15.7937 17.6526 15.7312 17.7989L15.6674 17.9451C15.6674 17.9451 15.6474 18.2789 15.6674 18.3626C15.6887 18.4464 15.9174 18.9051 15.9812 19.0089C16.0437 19.1139 16.3562 19.5726 16.3562 19.5726L17.0237 19.8026H17.5237L17.9412 19.6776C17.9412 19.6776 17.7524 19.6151 18.0249 19.5726C18.2949 19.5313 17.9612 19.4476 18.2949 19.5313C18.6287 19.6151 18.9624 19.8026 18.9624 19.8026C18.9624 19.8026 19.0462 19.8438 18.9624 19.9901C18.8799 20.1363 18.7124 20.0314 18.9211 20.3039C19.1299 20.5751 19.2349 20.7001 19.2549 20.9501C19.2749 21.2001 19.4424 21.6388 19.4424 21.6388L19.3999 22.3901C19.3999 22.3901 19.3174 22.4738 19.3174 22.6613C19.3174 22.8488 19.3587 22.9951 19.3587 22.9951C19.3587 22.9951 19.7249 23.1201 19.6774 23.4339C19.6299 23.7464 19.7249 24.2689 19.6774 24.3514C19.6299 24.4351 20.1099 25.0401 20.1099 25.0401C20.1099 25.0401 20.1099 24.9988 20.2762 25.0401C20.4437 25.0813 20.8399 24.7263 21.0487 24.6438C21.2574 24.5601 21.6124 24.1638 21.8 23.8926C21.9875 23.6213 22.1337 23.2463 22.1337 23.1838C22.1337 23.1213 22.03 23.3501 22.1337 23.1213C22.2387 22.8913 22.1337 22.9751 22.2387 22.8913C22.3437 22.8076 22.5725 22.5163 22.6562 22.3688C22.74 22.2226 22.8025 22.1601 22.8025 21.8688C22.8025 21.5763 22.74 21.1389 22.74 21.1389C22.74 21.1389 22.5937 21.2439 22.7612 20.9926C22.9287 20.7426 22.9075 20.7214 22.9912 20.6176C23.075 20.5138 23.1162 20.4713 23.4087 20.0751C23.7012 19.6788 23.8262 19.5539 23.9937 19.3026C24.16 19.0526 24.2425 18.8851 24.2425 18.8851C24.2425 18.8851 24.2225 18.7176 24.16 18.7176H23.91C23.8475 18.7176 23.8687 18.6763 23.7437 18.6763C23.6175 18.6763 23.2425 18.5713 23.3887 18.4676C23.5337 18.3626 23.555 18.3426 23.6812 18.3013C23.8062 18.2601 24.4325 17.9051 24.5575 17.7801C24.6837 17.6551 24.725 17.6551 24.9337 17.4876C25.1412 17.3201 25.1837 17.1951 25.1837 17.1126C25.1837 17.0288 25.0587 16.9663 24.9962 16.8626C24.9337 16.7588 24.6825 16.5926 24.6212 16.6338C24.5575 16.6751 24.5575 16.7801 24.3712 16.6338C24.1825 16.4876 23.725 16.0913 23.7037 16.0276C23.6837 15.9651 24.1425 16.1526 24.2037 16.1526C24.2662 16.1526 24.8925 16.2988 25.185 16.3401C25.4775 16.3813 25.9362 16.5076 26.0825 16.6326C26.2287 16.7576 26.5212 17.1326 26.8337 17.4039C27.1475 17.6751 27.3137 18.0926 27.335 18.2176C27.355 18.3426 27.2725 18.4264 27.5437 19.0314C27.5837 19.1201 27.6137 19.1964 27.6412 19.2701C26.2075 24.3488 21.5338 28.0876 16 28.0876ZM20.0899 15.6665L19.8399 15.9165C19.8399 15.9165 19.3812 15.5628 19.3187 15.5628C19.2562 15.5628 19.0887 15.429 19.0887 15.429L18.7962 14.9778C18.7962 14.9778 18.4412 14.9565 18.3162 14.9778C18.1912 14.999 17.7325 15.0403 17.5449 15.124V14.894C17.5449 14.894 17.7337 14.7065 17.8374 14.5815C17.9424 14.4565 18.0462 14.2065 18.0462 14.2065C18.0462 14.2065 18.4012 14.164 18.4424 14.2265C18.4837 14.289 18.6512 14.4352 18.7137 14.5402C18.7762 14.6452 18.8399 14.0815 18.8399 14.0815C18.8399 14.0815 19.195 14.2902 19.2774 14.4153C19.3612 14.5403 19.2149 14.7703 19.3199 14.854C19.4237 14.9378 19.6124 14.854 19.675 14.8328C19.7375 14.8115 19.7162 14.7278 19.8037 14.5403C19.8912 14.3528 19.9462 14.6028 20.0725 14.7278C20.1975 14.854 20.3437 14.8953 20.4687 14.7903C20.5937 14.6853 20.4687 14.4152 20.6762 14.4152C20.885 14.4152 20.8025 14.5202 20.8025 14.5828C20.8025 14.6452 21.9075 14.9702 21.9075 14.9702C21.9075 14.9702 22.0962 15.209 22.0537 15.314C22.0112 15.419 21.49 15.7102 21.4275 15.7315C21.365 15.7527 20.51 15.5427 20.2374 15.4452C19.9649 15.344 20.0899 15.6665 20.0899 15.6665ZM21.2999 13.6628L21.3837 13.6215C21.4674 13.5803 21.7174 13.3715 21.7174 13.329C21.7174 13.2878 21.9699 13.329 21.9699 13.329C21.9699 13.329 22.1762 13.579 22.3437 13.684C22.5112 13.789 22.4687 13.9665 22.4687 13.9665L22.26 14.184C22.26 14.184 21.8012 13.9965 21.7387 13.9753C21.6762 13.954 21.6137 13.9753 21.6137 13.9753L21.4675 14.0803C21.4675 14.0803 21.2175 14.059 21.1537 14.0803C21.0912 14.1015 21.2999 13.6628 21.2999 13.6628ZM22.2387 16.2503C22.2624 16.2503 22.2799 16.289 22.3012 16.349C22.3362 16.4453 22.3799 16.594 22.4724 16.709C22.6224 16.8978 22.8437 17.3353 22.9687 17.5228C23.0949 17.7103 23.1574 18.0453 23.1574 18.0865C23.1574 18.1278 22.8437 18.0865 22.8437 18.0865C22.8437 18.0865 22.5937 17.6065 22.4724 17.544C22.3524 17.4815 22.3637 17.2728 22.2799 17.1053C22.1974 16.939 21.9674 16.584 21.9462 16.2503L22.2387 16.2503Z" fill="black"/>
<path d="M16.1252 10.1376C16.2514 10.1164 16.3552 9.84014 16.3552 9.84014V9.63764L15.8652 9.53264C15.8652 9.53264 15.8964 9.55389 15.7302 9.53264C15.5627 9.51139 15.3752 9.53264 15.3752 9.53264C15.3752 9.8664 15.5627 10.1376 15.5627 10.1376C15.5627 10.1364 16.0002 10.1576 16.1252 10.1376Z" fill="black"/>
<path d="M18.8176 6.73637C18.8801 6.79887 19.0889 6.71762 19.1301 6.60137C19.1726 6.48512 19.2351 6.29762 19.2564 6.23513C19.2764 6.17263 19.5276 5.81763 19.5276 5.81763L19.3401 5.69263C19.3401 5.69263 19.0064 5.92263 18.9226 5.94263C18.8401 5.96388 18.5476 6.02638 18.5476 6.02638L18.4639 6.13138L18.5476 6.46763C18.6076 6.56888 18.7539 6.67388 18.8176 6.73637Z" fill="black"/>
<path d="M22.9476 23.0112V23.5437C23.1676 23.6062 23.2913 23.7937 23.3863 23.5437C23.4801 23.2937 23.6363 22.8237 23.6676 22.6988C23.6988 22.5738 23.9451 21.9163 23.9451 21.9163L23.4463 22.4488L22.9476 23.0112Z" fill="black"/>
<path d="M17.3137 12.1664C17.2674 12.2289 17.0987 12.5414 17.0987 12.5414C17.0987 12.5414 16.9787 12.7914 17.0599 12.9327C17.1412 13.0739 17.2512 12.9327 17.2512 12.9327C17.3612 12.8064 17.5437 12.7289 17.5437 12.7289C17.5437 12.7289 17.8462 12.5102 17.8462 12.4627C17.8462 12.4152 17.5174 12.0077 17.5487 11.9152C17.5799 11.8214 17.4699 11.4927 17.4387 11.3989C17.4074 11.3052 17.4237 11.2264 17.2512 11.2589C17.0787 11.2902 17.0099 11.9002 17.0987 11.9002C17.1887 11.9002 17.3612 12.1039 17.3137 12.1664Z" fill="black"/>
<path d="M16.9076 12.495C16.9388 12.4488 17.0788 12.1438 17.0313 12.1238C16.9851 12.1038 16.8288 11.9475 16.8288 11.9475L16.5463 12.0263V12.4963L16.6876 12.6838L16.9076 12.495Z" fill="black"/>
<path d="M8.7914 16.6261C8.7289 16.5949 8.05016 16.1987 7.99889 16.1774C7.94764 16.1562 7.66513 16.1774 7.66513 16.1774C7.66513 16.1774 7.43638 16.3024 7.45763 16.3337C7.47763 16.3649 7.57138 16.4912 7.60263 16.4537C7.63388 16.4162 7.71763 16.3649 7.71763 16.3649C7.71763 16.3649 7.86388 16.3862 7.97763 16.4687C8.09263 16.5524 8.43638 16.7399 8.47763 16.7399C8.52013 16.7412 8.85391 16.6574 8.7914 16.6261Z" fill="black"/>
<path d="M9.1536 16.6987C9.0211 16.6987 8.8586 16.7612 8.79859 16.7825C8.73859 16.8037 8.62359 16.8662 8.68609 16.9387C8.74984 17.0112 8.90609 17.0225 8.90609 17.0225C8.93734 17.0225 9.2811 17.0637 9.36485 17.0225C9.44735 16.9812 9.36485 16.8337 9.36485 16.8337C9.36485 16.8337 9.28735 16.6987 9.1536 16.6987Z" fill="black"/>
</svg>
